<svg width="91" height="18" viewBox="0 0 91 18" fill="none" xmlns="http://www.w3.org/2000/svg">
<path d="M10.3306 8.6664C10.3306 7.0548 10.0192 5.8592 9.39639 5.0802C8.77269 4.302 7.82818 3.9133 6.55818 3.9133H5.20718V13.7685H6.24078C7.65138 13.7685 8.68498 13.3503 9.34328 12.511C10.0008 11.6732 10.3306 10.3914 10.3306 8.6664ZM15.1485 8.4985C15.1485 11.4346 14.3592 13.697 12.7808 15.2851C11.2023 16.8739 8.98329 17.6683 6.12299 17.6683H0.565186V0.0746002H6.51099C9.26899 0.0746002 11.3982 0.796801 12.8985 2.2406C14.3983 3.6851 15.1485 5.7701 15.1485 8.4985ZM30.5436 17.6681H34.9662V0.000699997H30.5436V17.6681ZM41.1792 11.0781C41.1792 12.2045 41.3262 13.0637 41.6202 13.6542C41.9142 14.2454 42.4082 14.5406 43.1012 14.5406C43.7872 14.5406 44.2722 14.2454 44.5552 13.6542C44.8382 13.0637 44.9782 12.2046 44.9782 11.0781C44.9782 9.9575 44.8362 9.1124 44.5492 8.5418C44.2622 7.9697 43.7722 7.6833 43.0782 7.6833C42.3992 7.6833 41.9142 7.9682 41.6202 8.5351C41.3262 9.1028 41.1792 9.9502 41.1792 11.0781ZM49.4802 11.0781C49.4802 13.2242 48.9172 14.8984 47.7892 16.0984C46.6622 17.2992 45.0842 17.9 43.0562 17.9C41.1112 17.9 39.5632 17.286 38.4132 16.0579C37.2632 14.8299 36.6882 13.1704 36.6882 11.0781C36.6882 8.9386 37.2512 7.2762 38.3792 6.0908C39.5072 4.9055 41.0882 4.3128 43.1252 4.3128C44.3832 4.3128 45.4962 4.5874 46.4602 5.1359C47.4262 5.6845 48.1712 6.47 48.6942 7.4934C49.2182 8.5152 49.4802 9.7109 49.4802 11.0781ZM51.2362 17.6682H55.6592V10.9066V4.5448H51.2362V17.6682ZM51.2362 2.9575H55.6592V0H51.2362V2.9575ZM64.6212 14.3209C65.2182 14.3209 65.9292 14.1692 66.7592 13.8681V17.1701C66.1622 17.4322 65.5952 17.62 65.0572 17.7312C64.5182 17.8438 63.8852 17.8998 63.1622 17.8998C61.6772 17.8998 60.6062 17.5265 59.9492 16.7814C59.2942 16.0363 58.9662 14.8922 58.9662 13.3484V7.9386H57.4172V4.546H58.9662V1.1947L63.4232 0.419399V4.546H66.2452V7.9386H63.4232V13.0465C63.4232 13.8961 63.8232 14.3209 64.6212 14.3209ZM74.8582 14.3209C75.4552 14.3209 76.1662 14.1692 76.9962 13.8681V17.1701C76.4002 17.4322 75.8322 17.62 75.2942 17.7312C74.7542 17.8438 74.1242 17.8998 73.3992 17.8998C71.9142 17.8998 70.8432 17.5265 70.1872 16.7814C69.5312 16.0363 69.2032 14.8922 69.2032 13.3484V7.9386H67.6532V4.546H69.2032V1.1439L73.6592 0.419399V4.546H76.4832V7.9386H73.6592V13.0465C73.6592 13.8961 74.0592 14.3209 74.8582 14.3209ZM82.5772 9.4794C82.6372 8.7608 82.8432 8.2344 83.1932 7.8979C83.5452 7.5622 83.9792 7.3944 84.4992 7.3944C85.0662 7.3944 85.5172 7.5828 85.8512 7.9627C86.1872 8.3404 86.3622 8.8462 86.3772 9.4794H82.5772ZM88.8142 5.86C87.7632 4.8293 86.2712 4.3132 84.3422 4.3132C82.3132 4.3132 80.7532 4.9059 79.6582 6.0912C78.5652 7.2766 78.0182 8.9773 78.0182 11.1933C78.0182 13.3394 78.6092 14.9944 79.7892 16.1562C80.9692 17.318 82.6262 17.8996 84.7612 17.8996C85.7852 17.8996 86.6672 17.8297 87.4072 17.6906C88.1412 17.5529 88.8532 17.304 89.5422 16.9448L88.8632 13.9873C88.3612 14.192 87.8842 14.3496 87.4342 14.4534C86.7832 14.6043 86.0692 14.6801 85.2912 14.6801C84.4392 14.6801 83.7662 14.4718 83.2722 14.0551C82.7792 13.6376 82.5162 13.0619 82.4862 12.3286H90.3922V10.3135C90.3922 8.375 89.8662 6.89 88.8142 5.86ZM21.0183 9.4794C21.0787 8.7608 21.2842 8.2344 21.6345 7.8979C21.9857 7.5622 22.4208 7.3944 22.9413 7.3944C23.5067 7.3944 23.9574 7.5828 24.2923 7.9627C24.6288 8.3404 24.8032 8.8462 24.8187 9.4794H21.0183ZM27.2565 5.86C26.2045 4.8293 24.7136 4.3132 22.7831 4.3132C20.7541 4.3132 19.194 4.9059 18.1006 6.0912C17.0073 7.2766 16.4596 8.9773 16.4596 11.1933C16.4596 13.3394 17.05 14.9944 18.231 16.1562C19.4104 17.318 21.0677 17.8996 23.202 17.8996C24.2268 17.8996 25.1089 17.8297 25.848 17.6906C26.5828 17.5529 27.294 17.304 27.9845 16.9448L27.3042 13.9873C26.8028 14.192 26.3257 14.3496 25.8759 14.4534C25.2236 14.6043 24.5103 14.6801 23.7326 14.6801C22.8808 14.6801 22.2072 14.4718 21.7139 14.0551C21.2198 13.6376 20.9578 13.0619 20.9276 12.3286H28.8333V10.3135C28.8333 8.375 28.3076 6.89 27.2563 5.86" fill="#050038"/>
</svg>
