<svg width="182" height="182" viewBox="0 0 182 182" fill="none" xmlns="http://www.w3.org/2000/svg">
<circle cx="91" cy="91" r="91" fill="#F2F4FF"/>
<path d="M57.7489 66.8802V57.8271C57.7489 54.0566 60.8055 51 64.576 51H108.952C112.723 51 115.78 54.0566 115.78 57.8271V111.306C115.78 115.077 112.723 118.134 108.952 118.134H97.2527" stroke="#4262FF" stroke-width="2.88731"/>
<path fill-rule="evenodd" clip-rule="evenodd" d="M54.9956 60.8613C51.2251 60.8613 48.1685 63.9179 48.1685 67.6885V121.168C48.1685 124.938 51.2251 127.995 54.9956 127.995H99.372C103.143 127.995 106.199 124.938 106.199 121.168V67.6885C106.199 63.9179 103.143 60.8613 99.372 60.8613H54.9956ZM58.4092 76.0326C57.4665 76.0326 56.7024 76.7968 56.7024 77.7394C56.7024 78.682 57.4665 79.4462 58.4092 79.4462H95.7688C96.7114 79.4462 97.4756 78.682 97.4756 77.7394C97.4756 76.7968 96.7114 76.0326 95.7688 76.0326H58.4092ZM56.7024 89.4977C56.7024 88.5551 57.4665 87.7909 58.4092 87.7909H95.7688C96.7114 87.7909 97.4756 88.5551 97.4756 89.4977C97.4756 90.4403 96.7114 91.2045 95.7688 91.2045H58.4092C57.4665 91.2045 56.7024 90.4403 56.7024 89.4977ZM58.4092 99.5486C57.4665 99.5486 56.7024 100.313 56.7024 101.255C56.7024 102.198 57.4665 102.962 58.4092 102.962H95.7688C96.7114 102.962 97.4756 102.198 97.4756 101.255C97.4756 100.313 96.7114 99.5486 95.7688 99.5486H58.4092Z" fill="#4262FF"/>
<path fill-rule="evenodd" clip-rule="evenodd" d="M107.907 109.516C111.899 105.309 111.724 98.6616 107.516 94.67C103.308 90.6783 96.6615 90.8534 92.6699 95.0611C88.6782 99.2688 88.8534 105.916 93.0611 109.907C97.2687 113.899 103.916 113.724 107.907 109.516ZM110.166 91.877C115.367 96.8115 116.059 104.715 112.106 110.435L114.675 112.872C115.37 112.551 116.219 112.665 116.808 113.223L126.919 122.816C127.691 123.547 127.723 124.766 126.991 125.537L125.189 127.436C124.457 128.208 123.239 128.24 122.468 127.508L112.356 117.916C111.767 117.357 111.609 116.515 111.893 115.805L109.366 113.407C103.853 117.919 95.7147 117.731 90.4115 112.7C84.6613 107.245 84.422 98.1618 89.8769 92.4116C95.3319 86.6614 104.415 86.4221 110.166 91.877Z" fill="#050038"/>
</svg>
