<svg width="88" height="89" viewBox="0 0 88 89" fill="none" xmlns="http://www.w3.org/2000/svg">
<path d="M9.7489 17.8802V8.82714C9.7489 5.05661 12.8055 2 16.576 2H60.9524C64.723 2 67.7796 5.05661 67.7796 8.82714V62.3064C67.7796 66.0769 64.723 69.1335 60.9524 69.1335H49.2527" stroke="#6096B2" stroke-width="2.88731"/>
<path fill-rule="evenodd" clip-rule="evenodd" d="M6.9956 11.8613C3.22507 11.8613 0.168457 14.9179 0.168457 18.6885V72.1677C0.168457 75.9383 3.22508 78.9949 6.9956 78.9949H51.372C55.1425 78.9949 58.1991 75.9383 58.1991 72.1677V18.6885C58.1991 14.9179 55.1425 11.8613 51.372 11.8613H6.9956ZM10.4092 27.0326C9.46654 27.0326 8.70239 27.7968 8.70239 28.7394C8.70239 29.682 9.46654 30.4462 10.4092 30.4462H47.7688C48.7114 30.4462 49.4756 29.682 49.4756 28.7394C49.4756 27.7968 48.7114 27.0326 47.7688 27.0326H10.4092ZM8.70238 40.4977C8.70238 39.5551 9.46654 38.7909 10.4092 38.7909H47.7688C48.7114 38.7909 49.4756 39.5551 49.4756 40.4977C49.4756 41.4403 48.7114 42.2045 47.7688 42.2045H10.4092C9.46654 42.2045 8.70238 41.4403 8.70238 40.4977ZM10.4092 50.5486C9.46654 50.5486 8.70238 51.3127 8.70238 52.2554C8.70238 53.198 9.46654 53.9622 10.4092 53.9622H47.7688C48.7114 53.9622 49.4756 53.198 49.4756 52.2554C49.4756 51.3127 48.7114 50.5486 47.7688 50.5486H10.4092Z" fill="#6096B2"/>
<path fill-rule="evenodd" clip-rule="evenodd" d="M59.9073 60.5162C63.8989 56.3085 63.7238 49.6616 59.5161 45.67C55.3084 41.6783 48.6615 41.8534 44.6699 46.0611C40.6782 50.2688 40.8534 56.9157 45.0611 60.9074C49.2687 64.899 55.9156 64.7239 59.9073 60.5162ZM62.1657 42.877C67.3671 47.8115 68.0593 55.715 64.1064 61.4346L66.6755 63.8718C67.3699 63.5512 68.2191 63.6647 68.8078 64.2232L78.9194 73.8156C79.6907 74.5473 79.7228 75.7656 78.9911 76.5369L77.189 78.4365C76.4574 79.2077 75.239 79.2398 74.4678 78.5082L64.3562 68.9157C63.7674 68.3572 63.6094 67.5149 63.8931 66.8046L61.3655 64.4068C55.8531 68.9187 47.7147 68.7312 42.4115 63.7003C36.6613 58.2454 36.422 49.1618 41.8769 43.4116C47.3319 37.6614 56.4155 37.4221 62.1657 42.877Z" fill="#1C506C"/>
</svg>
