<svg width="98" height="72" viewBox="0 0 98 72" fill="none" xmlns="http://www.w3.org/2000/svg">
<path d="M21 38.5V11C21 7.13401 24.134 4 28 4H85.7422C91.0478 4 94.4247 9.67219 91.896 14.3364L76.9863 41.8364C75.7623 44.0939 73.4005 45.5 70.8326 45.5H28C24.134 45.5 21 42.366 21 38.5Z" fill="#25BBAF"/>
<path d="M3 3H8.6005C10.457 3 12.2375 3.7375 13.5503 5.05025L14.4497 5.94975C15.7625 7.2625 16.5 9.04298 16.5 10.8995V38.6005C16.5 40.457 15.7625 42.2375 14.4497 43.5503V43.5503C11.7161 46.2839 11.7161 50.7161 14.4497 53.4497L14.9497 53.9497C16.2625 55.2625 18.043 56 19.8995 56H73" stroke="#25BBAF" stroke-width="5" stroke-linecap="round"/>
<circle cx="38.5" cy="66.5" r="5.5" fill="#227B74"/>
<circle cx="67.5" cy="66.5" r="5.5" fill="#227B74"/>
</svg>
