<svg width="182" height="182" viewBox="0 0 182 182" fill="none" xmlns="http://www.w3.org/2000/svg">
<circle cx="91" cy="91" r="91" fill="#F2F4FF"/>
<path d="M87.4652 71.1396C87.4652 72.0065 86.7623 72.7093 85.8954 72.7093C85.0284 72.7093 84.3256 72.0065 84.3256 71.1396H87.4652ZM82.1279 57.0117H68V53.8721H82.1279V57.0117ZM84.3256 71.1396V59.2093H87.4652V71.1396H84.3256ZM65.8024 59.2093V78.9884H62.6628V59.2093H65.8024ZM68 57.0117C66.7863 57.0117 65.8024 57.9956 65.8024 59.2093H62.6628C62.6628 56.2617 65.0524 53.8721 68 53.8721V57.0117ZM82.1279 53.8721C85.0756 53.8721 87.4652 56.2617 87.4652 59.2093H84.3256C84.3256 57.9956 83.3417 57.0117 82.1279 57.0117V53.8721Z" fill="#050038"/>
<path d="M108.5 78.6747C108.5 79.5416 109.203 80.2444 110.07 80.2444C110.937 80.2444 111.64 79.5416 111.64 78.6747H108.5ZM95.0001 62.663H106.302V59.5235H95.0001V62.663ZM92.8024 72.8142V64.8607H89.6629V72.8142H92.8024ZM108.5 64.8607V78.6747H111.64V64.8607H108.5ZM106.302 62.663C107.516 62.663 108.5 63.647 108.5 64.8607H111.64C111.64 61.913 109.25 59.5235 106.302 59.5235V62.663ZM95.0001 59.5235C92.0524 59.5235 89.6629 61.9131 89.6629 64.8607H92.8024C92.8024 63.647 93.7864 62.663 95.0001 62.663V59.5235Z" fill="#050038"/>
<path d="M95.9419 55.4419V44.7674C95.9419 42.6867 97.6286 41 99.7093 41H112.581C114.662 41 116.349 42.6867 116.349 44.7674V78.9884" stroke="#050038" stroke-width="3.13953" stroke-linecap="round"/>
<path fill-rule="evenodd" clip-rule="evenodd" d="M61.4725 69.2559H120.365C120.378 69.2558 120.391 69.2558 120.404 69.2559H120.923V69.3101C121.478 69.4229 122.002 69.7112 122.405 70.1692L140.166 90.3518C141.148 91.4675 141.039 93.168 139.924 94.1498C138.808 95.1316 137.108 95.0231 136.126 93.9074L120.923 76.6319V108.545C120.923 115.976 114.899 122 107.468 122H73.8305C66.3994 122 60.3754 115.976 60.3754 108.545V77.2436L45.7112 93.9074C44.7294 95.0231 43.029 95.1316 41.9133 94.1498C40.7976 93.168 40.689 91.4675 41.6709 90.3518L59.4316 70.1692C59.7011 69.863 60.0246 69.6326 60.3754 69.4799V69.2559H61.4332C61.4463 69.2558 61.4594 69.2558 61.4725 69.2559ZM87.9878 101.695V101.457C88.0045 99.9018 88.1592 98.6643 88.4518 97.7445C88.7529 96.8247 89.1793 96.0805 89.7312 95.5119C90.283 94.9434 90.9478 94.4249 91.7254 93.9567C92.2271 93.6389 92.6787 93.2836 93.08 92.8906C93.4814 92.4976 93.7991 92.046 94.0333 91.536C94.2674 91.0259 94.3844 90.4615 94.3844 89.8427C94.3844 89.0985 94.2088 88.4547 93.8577 87.9112C93.5065 87.3677 93.0382 86.9496 92.4529 86.6569C91.8759 86.3559 91.2321 86.2054 90.5214 86.2054C89.8775 86.2054 89.2629 86.3392 88.6776 86.6068C88.0923 86.8743 87.6073 87.2924 87.2227 87.861C86.838 88.4212 86.6165 89.1445 86.5579 90.0309H82.745C82.8035 88.5258 83.184 87.2548 83.8864 86.2179C84.5887 85.1727 85.5169 84.3826 86.6708 83.8474C87.8331 83.3123 89.1166 83.0447 90.5214 83.0447C92.0599 83.0447 93.4061 83.3332 94.56 83.9101C95.7139 84.4787 96.6086 85.2773 97.2441 86.3057C97.888 87.3259 98.2099 88.5174 98.2099 89.8804C98.2099 90.8169 98.0636 91.6614 97.7709 92.4139C97.4783 93.1581 97.0602 93.8229 96.5167 94.4082C95.9815 94.9935 95.3377 95.5119 94.5851 95.9635C93.8744 96.4066 93.2974 96.8665 92.8543 97.3431C92.4194 97.8198 92.1017 98.3842 91.901 99.0364C91.7003 99.6886 91.5916 100.495 91.5749 101.457V101.695H87.9878ZM89.8817 109.321C89.196 109.321 88.6065 109.079 88.1132 108.594C87.6199 108.1 87.3732 107.507 87.3732 106.813C87.3732 106.127 87.6199 105.542 88.1132 105.057C88.6065 104.563 89.196 104.317 89.8817 104.317C90.559 104.317 91.1443 104.563 91.6376 105.057C92.1393 105.542 92.3902 106.127 92.3902 106.813C92.3902 107.273 92.2731 107.695 92.039 108.08C91.8132 108.456 91.5122 108.757 91.1359 108.983C90.7597 109.208 90.3416 109.321 89.8817 109.321Z" fill="#4262FF"/>
</svg>
