<svg width="100" height="83" viewBox="0 0 100 83" fill="none" xmlns="http://www.w3.org/2000/svg">
<path d="M46.4652 32.1396C46.4652 33.0065 45.7623 33.7093 44.8954 33.7093C44.0284 33.7093 43.3256 33.0065 43.3256 32.1396H46.4652ZM41.1279 18.0117H27V14.8721H41.1279V18.0117ZM43.3256 32.1396V20.2093H46.4652V32.1396H43.3256ZM24.8024 20.2093V39.9884H21.6628V20.2093H24.8024ZM27 18.0117C25.7863 18.0117 24.8024 18.9956 24.8024 20.2093H21.6628C21.6628 17.2617 24.0524 14.8721 27 14.8721V18.0117ZM41.1279 14.8721C44.0756 14.8721 46.4652 17.2617 46.4652 20.2093H43.3256C43.3256 18.9956 42.3417 18.0117 41.1279 18.0117V14.8721Z" fill="#1C506B"/>
<path d="M67.5001 39.6747C67.5001 40.5416 68.2029 41.2444 69.0699 41.2444C69.9368 41.2444 70.6396 40.5416 70.6396 39.6747H67.5001ZM54.0001 23.663H65.3024V20.5235H54.0001V23.663ZM51.8024 33.8142V25.8607H48.6629V33.8142H51.8024ZM67.5001 25.8607V39.6747H70.6396V25.8607H67.5001ZM65.3024 23.663C66.5162 23.663 67.5001 24.647 67.5001 25.8607H70.6396C70.6396 22.913 68.2501 20.5235 65.3024 20.5235V23.663ZM54.0001 20.5235C51.0524 20.5235 48.6629 22.9131 48.6629 25.8607H51.8024C51.8024 24.647 52.7864 23.663 54.0001 23.663V20.5235Z" fill="#1C506B"/>
<path d="M54.9419 16.4419V5.76744C54.9419 3.68674 56.6286 2 58.7093 2H71.5814C73.6621 2 75.3489 3.68674 75.3489 5.76744V39.9884" stroke="#1C506B" stroke-width="3.13953" stroke-linecap="round"/>
<path fill-rule="evenodd" clip-rule="evenodd" d="M20.4725 30.2559H79.3645C79.3776 30.2558 79.3907 30.2558 79.4038 30.2559H79.9234V30.3101C80.4784 30.4229 81.0024 30.7112 81.4054 31.1692L99.1662 51.3518C100.148 52.4675 100.039 54.1679 98.9238 55.1498C97.808 56.1316 96.1076 56.0231 95.1258 54.9074L79.9234 37.6319V69.5449C79.9234 76.9759 73.8993 83 66.4683 83H32.8305C25.3994 83 19.3754 76.9759 19.3754 69.5449V38.2436L4.71125 54.9074C3.72941 56.0231 2.02901 56.1316 0.913292 55.1498C-0.202427 54.1679 -0.310963 52.4675 0.67087 51.3518L18.4316 31.1692C18.7011 30.863 19.0246 30.6326 19.3754 30.4799V30.2559H20.4332C20.4463 30.2558 20.4594 30.2558 20.4725 30.2559ZM46.9878 62.6954V62.4571C47.0045 60.9018 47.1592 59.6643 47.4518 58.7445C47.7529 57.8247 48.1793 57.0805 48.7312 56.5119C49.283 55.9433 49.9478 55.4249 50.7254 54.9567C51.2271 54.6389 51.6787 54.2836 52.08 53.8906C52.4814 53.4976 52.7991 53.046 53.0333 52.536C53.2674 52.0259 53.3844 51.4615 53.3844 50.8427C53.3844 50.0985 53.2088 49.4547 52.8577 48.9112C52.5065 48.3677 52.0382 47.9496 51.4529 47.6569C50.8759 47.3559 50.2321 47.2054 49.5214 47.2054C48.8775 47.2054 48.2629 47.3392 47.6776 47.6068C47.0923 47.8743 46.6073 48.2924 46.2227 48.861C45.838 49.4212 45.6165 50.1445 45.5579 51.0309H41.745C41.8035 49.5258 42.184 48.2548 42.8864 47.2179C43.5887 46.1727 44.5169 45.3826 45.6708 44.8474C46.8331 44.3123 48.1166 44.0447 49.5214 44.0447C51.0599 44.0447 52.4061 44.3332 53.56 44.9101C54.7139 45.4787 55.6086 46.2773 56.2441 47.3057C56.888 48.3259 57.2099 49.5174 57.2099 50.8804C57.2099 51.8169 57.0636 52.6614 56.7709 53.4139C56.4783 54.1581 56.0602 54.8229 55.5167 55.4082C54.9815 55.9935 54.3377 56.5119 53.5851 56.9635C52.8744 57.4066 52.2974 57.8665 51.8543 58.3431C51.4194 58.8198 51.1017 59.3842 50.901 60.0364C50.7003 60.6886 50.5916 61.4955 50.5749 62.4571V62.6954H46.9878ZM48.8817 70.3212C48.196 70.3212 47.6065 70.0788 47.1132 69.5938C46.6199 69.1004 46.3732 68.5068 46.3732 67.8127C46.3732 67.1271 46.6199 66.5418 47.1132 66.0568C47.6065 65.5635 48.196 65.3168 48.8817 65.3168C49.559 65.3168 50.1443 65.5635 50.6376 66.0568C51.1393 66.5418 51.3902 67.1271 51.3902 67.8127C51.3902 68.2726 51.2731 68.6949 51.039 69.0795C50.8132 69.4558 50.5122 69.7568 50.1359 69.9826C49.7597 70.2084 49.3416 70.3212 48.8817 70.3212Z" fill="#6096B2"/>
</svg>
