<svg width="182" height="182" viewBox="0 0 182 182" fill="none" xmlns="http://www.w3.org/2000/svg">
<circle cx="91" cy="91" r="91" fill="#F2F4FF"/>
<path d="M62 95.5V68C62 64.134 65.134 61 69 61H126.742C132.048 61 135.425 66.6722 132.896 71.3364L117.986 98.8364C116.762 101.094 114.401 102.5 111.833 102.5H69C65.134 102.5 62 99.366 62 95.5Z" fill="#4262FF"/>
<path d="M44 60H49.6005C51.457 60 53.2375 60.7375 54.5503 62.0503L55.4497 62.9497C56.7625 64.2625 57.5 66.043 57.5 67.8995V95.6005C57.5 97.457 56.7625 99.2375 55.4497 100.55V100.55C52.7161 103.284 52.7161 107.716 55.4497 110.45L55.9497 110.95C57.2625 112.263 59.043 113 60.8995 113H114" stroke="#4262FF" stroke-width="5" stroke-linecap="round"/>
<circle cx="79.5" cy="123.5" r="5.5" fill="#050038"/>
<circle cx="108.5" cy="123.5" r="5.5" fill="#050038"/>
</svg>
