<svg width="248" height="177" viewBox="0 0 248 177" fill="none" xmlns="http://www.w3.org/2000/svg">
<g clip-path="url(#clip0_265_162)">
<path d="M1.193 30.5455C31.6419 34.1504 57.5661 26.9546 86.6876 15.9908L86.7167 15.9798L86.744 15.9648C88.4034 15.053 93.059 12.8392 98.7045 12.8392C101.821 12.8392 104.738 13.495 107.4 14.7739L107.953 15.0394L108.023 14.4303C108.926 6.58398 115.573 0.470715 123.685 0.470715C131.767 0.470715 138.443 6.58452 139.316 14.4287L139.385 15.0404L139.939 14.7739C142.601 13.4953 145.578 12.8392 148.635 12.8392C154.295 12.8392 158.936 15.0525 160.629 15.9664L160.655 15.9804L160.682 15.9907C189.602 26.892 215.844 34.1753 246.163 30.549C222.328 54.2624 190.093 76.0813 156.134 68.9344L155.221 68.7425L155.658 69.5661C156.965 72.0312 157.741 74.8451 157.966 77.9234C158.041 79.4388 158.011 80.7272 157.921 81.91L157.921 81.91L157.92 81.9221C157.861 83.1418 157.338 86.0763 156.337 88.093L156.333 88.1009L156.33 88.1089C155.205 90.6251 153.348 93.039 150.787 95.2716C148.041 97.5365 145.369 99.0236 142.805 100.23L142.457 100.394L142.576 100.76C144.09 105.421 142.574 110.415 140.303 113.35L140.296 113.359L140.289 113.368C139.401 114.648 138.496 115.81 137.36 117.189L137.359 117.189L137.351 117.2C136.689 118.057 135.98 118.901 135.241 119.732L135.033 119.965L135.187 120.237C135.314 120.463 135.433 120.697 135.563 120.953C135.628 121.084 135.697 121.22 135.772 121.363C138.137 125.945 138.743 132.881 134.954 138.145L134.746 138.433L134.986 138.695C135.946 139.745 136.858 140.867 137.74 142.211C139.655 145.241 140.383 148.275 140.032 151.25C139.593 154.949 137.429 157.477 135.807 159.084L135.807 159.084L135.798 159.093C134.888 160.049 133.941 161.011 132.938 161.879L132.691 162.092L132.826 162.389C133.393 163.64 133.7 165.039 133.7 166.514C133.7 172.04 129.224 176.529 123.685 176.529C118.145 176.529 113.67 172.04 113.67 166.514C113.67 164.952 114.02 163.48 114.646 162.169L114.786 161.876L114.547 161.658C113.696 160.883 112.855 160.102 112.047 159.234L112.04 159.227L112.033 159.22L112.011 159.198C111.121 158.324 108.407 155.658 107.87 151.639L107.869 151.634C107.445 148.679 108.157 145.647 109.969 142.661C110.865 141.226 111.868 139.954 112.844 138.858L113.087 138.585L112.862 138.298C108.888 133.22 109.369 126.123 111.678 121.401L111.682 121.392L111.686 121.383C111.757 121.221 111.835 121.064 111.919 120.898L111.942 120.852C112.017 120.704 112.097 120.546 112.17 120.385L112.291 120.119L112.091 119.905C111.351 119.121 110.646 118.325 109.941 117.425L109.935 117.418L109.93 117.411C108.889 116.19 107.998 115.027 106.934 113.613L106.934 113.613L106.926 113.603C104.661 110.779 103.097 105.682 104.642 100.927L104.764 100.553L104.403 100.393C101.811 99.2478 99.124 97.8059 96.3783 95.6158C93.701 93.4016 91.7986 90.989 90.5215 88.1824L90.5152 88.1684L90.5079 88.155C90.0477 87.3065 89.6705 86.1436 89.4025 84.9985C89.1349 83.8552 88.9847 82.7669 88.9631 82.0815L88.9625 82.0646L88.9607 82.0478C88.8571 81.1005 88.8116 79.8008 88.8563 78.4195C89.0666 75.1426 89.8289 72.256 91.1937 69.7044L91.6236 68.9006L90.7279 69.0696C56.4577 75.5325 24.774 54.2848 1.193 30.5455Z" stroke="white" stroke-width="0.87307"/>
<path d="M123.7 25.987C130.187 25.987 135.445 20.7287 135.445 14.2423C135.445 7.75586 130.187 2.49756 123.7 2.49756C117.214 2.49756 111.955 7.75586 111.955 14.2423C111.955 20.7287 117.214 25.987 123.7 25.987Z" fill="white"/>
<path fill-rule="evenodd" clip-rule="evenodd" d="M17.9517 36.9107C47.3287 40.6075 65.9347 31.6468 65.9347 31.6468C46.3094 37.4127 26.6233 37.078 17.5865 36.5303C17.2823 36.2109 17.1301 35.9827 17.1301 35.9827C46.9332 35.9827 89.3177 19.5826 89.3177 19.5826C89.3177 19.5826 100.302 12.9039 108.608 21.1192L121.783 34.1114V23.6598C117.402 22.7622 114.085 18.8828 114.085 14.2427C114.085 8.96367 118.39 4.64307 123.685 4.64307C129.025 4.64307 133.3 8.96367 133.3 14.2427C133.3 18.8828 130.014 22.7622 125.602 23.6598V34.0962L138.761 21.1192C147.113 12.9039 158.052 19.5826 158.052 19.5826C158.052 19.5826 200.452 35.9827 230.239 35.9827C230.239 35.9827 230.102 36.2109 229.813 36.5303C220.746 37.078 201.106 37.4127 181.435 31.6468C181.435 31.6468 200.056 40.6075 229.479 36.9107C226.543 39.8621 214.798 48.5641 183.443 38.1125C177.069 35.9827 177.069 35.9827 181.313 38.1125C181.313 38.1125 193.94 45.5823 215.209 47.7122C215.209 47.7122 214.6 49.2944 212.211 50.8461C206.461 50.6332 188.448 49.2487 170.998 40.2728C170.998 40.2728 186.47 52.0328 212.014 50.9526C206.887 54.0714 194.077 56.6424 162.905 43.7263C162.905 43.7263 158.98 42.6765 161.749 44.274C164.533 45.8714 184.28 54.3604 199.828 55.5167C199.828 55.5167 198.033 57.1141 194.001 58.2246C185.603 56.7946 169.127 53.2803 153.853 45.7801C153.853 45.7801 167.743 55.3037 193.256 58.4376C185.862 60.2632 171.622 60.5371 148.011 49.0357C148.011 49.0357 145.029 48.4272 147.266 49.5834C149.502 50.7701 164.609 59.0309 177.631 60.3089C178.651 60.4154 174.3 61.8759 167.408 61.9519C161.581 60.5979 151.297 57.4335 141.773 50.7396C141.773 50.7396 149.882 58.894 165.035 61.9063C157.185 61.602 146.84 59.3504 137.27 51.7133C137.27 51.7133 129.572 56.825 125.602 58.6202V89.5338C128.675 88.1342 131.657 86.8258 134.425 85.3349C136.783 84.057 139.096 82.6573 140.511 81.1816C141.256 80.4362 142.595 77.3783 140.769 75.7353C139.157 75.0659 136.449 75.5223 134.775 76.1004V75.9939C131.444 76.5568 128.492 75.1115 127.792 71.369C127.169 67.6569 128.568 65.0555 131.809 64.4013L131.748 64.2948C135.688 63.5189 139.096 63.2603 143.599 64.7968C145.759 65.5727 148.117 67.2158 149.639 69.4978C151.114 71.7798 151.708 74.3052 151.86 76.4351C151.921 77.5 151.89 78.5041 151.784 79.5082C151.784 80.3753 151.358 82.3835 150.871 83.3876C149.791 85.7761 148.239 87.4496 146.809 88.6666C143.858 91.0704 140.952 92.4396 138.092 93.6414C136.403 94.3869 134.699 95.041 133.026 95.6496C134.304 96.7145 135.749 97.9772 136.662 100.381C137.711 103.119 136.601 106.177 135.445 107.653C134.501 108.992 133.665 110.072 132.63 111.35C130.942 113.541 128.994 115.518 127.123 117.405C128.264 118.804 129.39 120.326 130.318 122.182C131.9 125.316 132.189 129.743 129.801 132.801C128.705 134.322 127.503 135.539 126.286 136.65L126.469 136.817C128.568 138.916 130.82 140.925 132.6 143.587C133.452 144.971 134.182 146.66 133.969 148.531C133.756 150.403 132.448 151.848 131.489 152.776C129.648 154.754 127.595 156.503 125.602 158.222V160.702C125.875 161.098 126.119 161.524 126.332 161.965C126.971 163.349 127.016 164.992 126.743 166.438C127.093 164.597 126.56 162.938 125.602 161.539V164.536C125.602 165.327 124.963 165.966 124.172 165.966H123.213C122.437 165.966 121.783 165.327 121.783 164.536V161.858C121.114 163.288 120.034 164.734 120.399 166.209C120.064 164.551 120.749 163.06 121.783 161.767V157.812C119.973 156.321 118.132 154.784 116.489 153.019C115.515 152.106 114.207 150.661 113.948 148.851C113.72 146.98 114.435 145.23 115.241 143.876C116.96 141.138 119.212 139.114 121.266 137.03L121.601 136.695C120.292 135.554 119.029 134.322 117.873 132.755C115.47 129.743 115.667 125.255 117.219 122.136C118.086 120.31 119.136 118.835 120.216 117.466C118.36 115.625 116.428 113.723 114.754 111.608C113.659 110.376 112.853 109.25 111.864 107.988C110.693 106.512 109.552 103.454 110.556 100.7C111.484 98.1446 113.051 96.8362 114.359 95.7257C112.609 95.1171 110.829 94.4782 109.049 93.7479C106.159 92.5613 103.238 91.2833 100.226 88.8796C98.7652 87.693 97.1982 86.0499 96.1181 83.6614C95.5856 82.7182 95.1444 80.71 95.0683 79.782C95.0227 78.8236 94.9619 77.7891 95.0227 76.7089C95.1444 74.6095 95.6617 72.0688 97.1526 69.7716C98.6131 67.444 100.926 65.7857 103.086 64.949C107.543 63.3668 110.982 63.5645 114.891 64.2948V64.4013C118.117 65.0098 119.547 67.5657 118.984 71.3234C118.345 75.0659 115.393 76.5568 112.077 76.0395L112.046 76.146C110.403 75.5831 107.68 75.1724 106.083 75.857C104.257 77.5304 105.672 80.5883 106.418 81.3034C107.863 82.7182 110.175 84.1483 112.594 85.3805C115.485 86.8867 118.588 88.1798 121.783 89.5794V58.6202C117.828 56.8402 110.13 51.7133 110.13 51.7133C100.56 59.3504 90.1848 61.602 82.3195 61.9063C97.5329 58.894 105.596 50.7396 105.596 50.7396C96.1029 57.4335 85.8186 60.5979 79.9767 61.9519C73.1306 61.8759 68.734 60.4154 69.738 60.3089C82.7911 59.0309 97.898 50.7701 100.104 49.5834C102.371 48.4272 99.3737 49.0357 99.3737 49.0357C75.7778 60.5371 61.5685 60.2632 54.1139 58.4376C79.6572 55.3037 93.5774 45.7801 93.5774 45.7801C78.2423 53.2803 61.7662 56.7946 53.3989 58.2246C49.3977 57.1141 47.5417 55.5167 47.5417 55.5167C63.105 54.3604 82.8824 45.8714 85.6665 44.274C88.4201 42.6765 84.4798 43.7263 84.4798 43.7263C53.2924 56.6424 40.4675 54.0714 35.371 50.9526C60.9447 52.0328 76.4167 40.2728 76.4167 40.2728C58.9518 49.2487 40.9391 50.6332 35.158 50.8461C32.7847 49.2944 32.1762 47.7122 32.1762 47.7122C53.4445 45.5823 66.0868 38.1125 66.0868 38.1125C70.3466 35.9827 70.3466 35.9827 63.9265 38.1125C32.5869 48.5641 20.827 39.8621 17.9517 36.9107ZM125.602 99.742V110.848C126.438 109.783 127.245 108.703 128.005 107.607C128.72 106.558 129.572 105.188 130.257 104.017C130.744 103.119 130.607 102.952 130.5 102.861C130.272 102.267 127.914 100.67 125.602 99.742ZM125.602 123.201V132.39C126.043 131.842 126.438 131.279 126.758 130.716C128.005 128.86 127.64 126.335 126.469 124.403C126.195 123.992 125.921 123.597 125.602 123.201ZM125.602 140.012V157.066C127.275 155.332 128.933 153.628 130.394 151.741C132.6 149.596 132.63 147.132 130.774 144.941C129.375 143.1 127.503 141.564 125.602 140.012ZM121.783 156.564V140.499C120.034 141.974 118.33 143.465 117.052 145.169C115.287 147.39 115.348 149.855 117.599 152C118.877 153.613 120.323 155.088 121.783 156.564ZM121.783 131.873V123.308C121.555 123.627 121.327 123.962 121.114 124.296C119.927 126.289 119.623 128.784 120.916 130.61C121.175 131.036 121.464 131.462 121.783 131.873ZM121.783 111.061V99.8333C119.471 100.807 116.945 102.48 116.747 103.119C116.641 103.195 116.489 103.348 116.976 104.276C117.691 105.417 118.543 106.755 119.319 107.851C120.11 108.931 120.931 109.996 121.783 111.061Z" fill="white"/>
<path fill-rule="evenodd" clip-rule="evenodd" d="M122.848 25.8356H124.597C124.78 25.7443 126.149 25.6074 126.955 25.364C127.64 25.1662 128.34 24.8924 128.948 24.5729C129.602 24.223 130.165 23.8731 130.683 23.4927L131.443 22.8538C133.406 21.3172 135.429 17.6052 135.292 14.0909C135.201 11.7328 134.562 9.51163 133.254 7.70124C133.025 7.39697 132.889 7.1992 132.645 6.91014C131.611 5.64743 130.424 4.59771 128.735 3.80661C127.731 3.35021 126.681 2.98509 125.556 2.80252C125.297 2.75688 124.491 2.71124 124.354 2.65039H123.03C122.711 2.78731 121.037 2.65039 118.618 3.83704C117.219 4.52164 116.245 5.31273 115.363 6.19511C114.906 6.6363 114.541 7.15356 114.115 7.73166C113.72 8.26413 113.415 8.87267 113.096 9.52685C111.286 13.3606 112.016 18.2137 114.602 21.4389C118.04 25.7443 122.361 25.6226 122.848 25.8356ZM117.523 5.63222C117.843 5.64743 118.284 5.73871 118.558 5.86042C118.801 5.96691 118.634 6.0734 119.12 6.0734C119.181 6.0734 119.197 6.0734 119.257 6.05819C119.409 6.01255 119.288 6.0734 119.379 5.99734C119.273 5.75392 119.044 5.8452 118.725 5.82999C118.786 5.70828 118.816 5.69307 118.786 5.52572L118.253 5.51051C118.451 5.31273 119.06 4.81069 119.47 5.09975C119.668 5.25188 119.546 5.44966 119.972 5.46487C120.429 5.48008 120.231 5.11496 120.642 5.28231C120.627 5.32795 120.444 5.54094 120.383 5.60179C120.201 5.73871 120.033 5.69307 119.805 5.69307L119.82 6.04298C120.566 6.11904 120.322 5.9517 120.687 5.86042L121.007 5.78435C121.068 5.26709 120.931 5.75392 120.809 5.46487C120.976 5.11496 121.174 5.22145 121.737 5.26709C121.646 5.48008 120.931 5.87563 121.859 5.93648L121.844 5.43444C122.133 5.34316 122.467 5.13017 122.924 5.19103C123.152 5.22145 123.654 5.51051 123.913 5.60179V5.99734L124.217 6.08862L124.08 6.36246L123.639 6.37767L123.487 6.69715L122.589 6.43853L123.045 6.16468C123.289 6.01255 123.137 6.16468 123.243 5.96691C122.893 5.81478 123.015 5.7235 122.422 5.8452C121.965 5.9517 122.315 6.08862 121.676 6.19511C121.661 6.46895 121.707 6.25597 121.768 6.45374C121.281 6.54502 121.722 6.59066 121.326 6.66673C121.144 6.52981 121.281 6.56023 121.159 6.37767C120.566 6.48417 120.292 6.81886 119.805 7.01664C119.866 7.79252 120.231 7.47304 120.672 7.73166L120.687 8.24892C121.144 8.29456 120.916 7.83816 121.402 7.70124C121.585 7.64038 121.585 7.6556 121.707 7.56432C121.737 7.18398 121.631 6.87971 121.935 6.71237C122.148 6.59066 122.513 6.75801 122.787 6.80365L122.756 7.29048C123.182 7.29048 123.198 7.07749 123.517 7.07749L123.532 7.6556C123.867 7.83816 123.943 7.80773 123.913 8.27935L123.532 8.40105C123.608 8.62925 123.608 8.53797 123.852 8.64447C124.05 8.75096 124.05 8.73575 123.989 8.99438C123.867 8.99438 123.487 8.9031 123.38 8.84224C123.106 8.6749 123.426 8.64447 123.426 8.32499C123.106 8.30977 123.243 8.5684 122.833 8.49233C122.574 8.44669 122.68 8.14243 122.224 8.35541C122.163 8.70532 122.3 8.55319 122.543 8.6749L122.407 8.85746C122.285 8.81182 122.239 8.76618 122.072 8.75096C121.083 9.87675 121.402 9.11608 120.505 10.1354C120.079 10.607 120.733 10.3179 119.79 10.9417C119.257 11.2916 119.379 11.246 119.349 11.9762L118.923 11.7936L118.907 11.4285C118.147 11.3829 117.721 11.3372 117.127 11.6719C116.93 11.7936 116.808 12.0827 116.717 12.2957C116.549 12.7064 116.656 12.7217 116.778 13.0716C117.158 13.1172 117.249 13.2085 117.538 12.9955C117.69 12.889 117.949 12.676 118.147 12.6304C118.238 13.0411 118.071 12.9803 117.979 13.3302L118.573 13.4367L118.634 14.3951L119.486 14.5321C119.881 14.1061 119.942 13.8018 120.566 14.03C120.733 14.0909 120.809 14.2126 120.87 14.3647C121.113 14.3495 121.372 14.3799 121.555 14.2582C121.889 14.03 121.357 14.2886 121.646 14.1821C122.087 14.4103 122.026 14.5929 122.3 14.9276H122.939C123.213 15.2471 123.198 15.3992 123.243 15.886C124.034 16.2512 124.019 16.1295 124.932 16.2055C125.221 16.738 125.084 16.5098 125.571 16.7836C125.571 17.164 125.449 17.2553 125.251 17.4835C124.886 17.9551 125.145 18.8222 124.795 19.1265C124.491 19.3851 124.399 19.3091 123.897 19.3091C123.821 19.4916 123.73 19.522 123.745 19.735C123.761 20.4805 124.141 19.9784 123.365 20.9673C122.969 21.4541 123.03 21.6063 122.437 21.8345C122.254 21.8953 122.087 21.8801 121.935 21.9562C121.95 22.2148 121.935 22.0475 122.026 22.1235L122.194 22.23C122.148 22.5799 121.6 22.7777 122.376 22.8538L122.27 23.5232C122.467 23.6753 122.756 23.797 122.68 24.0556C122.528 24.1317 122.604 24.1013 122.407 24.1165C121.737 24.1317 121.357 23.4623 121.053 22.9298C120.733 22.4126 121.159 22.0779 120.855 21.6671C120.718 21.4998 120.611 21.4694 120.627 21.2259C120.642 21.0282 120.718 20.7695 120.748 20.5566L120.672 20.5109C120.672 20.4957 120.642 20.4805 120.642 20.4805L120.535 18.594C120.353 18.518 120.292 18.4419 120.109 18.3202C119.912 18.1833 119.835 18.1833 119.592 18.092C119.501 17.9246 119.546 17.8942 119.47 17.7269C119.318 17.4074 118.907 17.1031 118.755 16.8141C118.694 16.6924 118.755 16.1295 118.786 15.9165C118.831 15.6578 119.136 15.5666 119.333 15.384C119.333 15.1558 119.333 14.9124 119.227 14.7146C118.299 14.6538 118.634 14.8059 118.147 14.3039C117.188 13.3302 117.325 14.243 117.112 13.6497C117.082 13.5736 117.112 13.6192 117.067 13.4975C116.656 13.4367 116.778 13.6649 115.956 13.4063C115.728 13.3302 115.743 13.2693 115.637 13.0868C115.241 12.4782 115.804 12.7825 115.408 12.2348C114.587 11.1547 115.195 11.0482 114.693 11.033C114.572 11.8393 115.165 11.9001 115.119 12.4935C114.648 12.5087 114.663 12.2957 114.45 11.9458C114.283 11.6567 114.343 11.2916 114.328 10.8808L113.887 10.6831V10.1962C113.4 10.8352 113.066 13.102 113.05 14.1365C113.035 15.5818 113.324 17.027 113.811 18.1985C116.291 24.2838 123.761 26.8397 129.389 23.2341C130.652 22.4126 130.926 22.0018 131.915 20.9825C131.808 20.9217 131.854 20.9825 131.778 20.9521L131.595 20.876C131.595 20.5413 131.656 20.3131 131.489 20.0849C131.322 19.8415 131.185 19.8263 131.185 19.4308C131.185 18.9896 131.276 18.9135 131.033 18.6701C130.82 18.4571 130.804 18.2745 130.972 17.9703C131.352 17.2553 131.215 17.3922 130.85 16.738C130.363 15.8252 130.591 16.2664 130.576 15.2319C130.333 15.1862 130.028 15.2014 129.861 15.0797C129.176 14.5777 129.481 15.1254 128.538 15.1102C127.473 15.0949 127.959 15.5209 126.879 14.243C126.697 14.0148 126.651 13.6497 126.712 13.2846C126.742 13.0868 126.758 13.1781 126.834 13.0716L126.925 12.7977C126.727 12.6304 126.666 12.7521 126.636 12.3565L127.792 11.5046V10.9113C127.944 10.8352 128.218 10.6526 128.385 10.6222C128.674 10.5614 128.903 10.6678 129.176 10.5614C129.587 10.3636 130.12 10.3332 130.622 10.3332L130.637 10.9113L131.945 11.2916C131.945 11.109 131.915 11.109 131.991 10.9721C132.6 10.8961 132.463 10.9113 132.843 11.1851C133.086 11.3677 133.558 11.322 133.893 11.2916L133.619 10.4092C132.904 10.394 132.797 10.4244 132.736 9.66377C132.539 9.69419 132.493 9.72462 132.432 9.89197C132.402 9.93761 132.387 10.0289 132.371 10.105L132.265 10.3179C131.671 9.83111 132.021 9.72462 131.778 9.43556C131.748 9.38992 131.504 9.20736 131.428 9.14651C131.246 8.99438 131.215 9.0248 130.88 9.04002C130.941 9.54206 131.246 9.57249 131.595 9.78547L131.55 10.0897C131.519 10.2419 131.611 10.2267 131.398 10.3179C131.154 10.4244 131.017 10.3027 130.941 10.1202C131.169 10.1202 131.169 10.1506 131.352 10.0593C131.276 9.83111 130.743 9.61813 130.454 9.26822C130.454 9.26822 130.439 9.253 130.424 9.23779C130.181 9.49642 130.226 9.46599 129.77 9.43556L129.207 10.2723C129.1 10.4244 128.903 10.4092 128.644 10.4092C128.355 10.394 128.264 10.3484 128.051 10.2723C127.914 9.14651 128.081 9.28343 129.116 9.38992C129.192 9.05523 129.237 9.16172 128.979 9.0248C129.009 8.112 129.359 8.84224 129.739 8.27935C130.12 7.70124 130.135 7.92944 130.835 7.91423C130.85 7.73166 130.835 7.56432 130.759 7.44261L130.378 7.57953C130.257 7.4274 130.287 7.38176 130.226 7.29048C130.013 7.03185 130.074 7.35133 129.937 7.06228C129.815 6.65151 130.485 6.66673 130.698 6.31682C130.607 6.04298 129.739 5.51051 129.481 5.32795C126.362 3.25893 122.27 3.12201 118.938 4.74984C118.558 4.9324 117.797 5.26709 117.523 5.63222Z" fill="#25BBAF"/>
</g>
<defs>
<clipPath id="clip0_265_162">
<rect width="247.37" height="177" fill="white"/>
</clipPath>
</defs>
</svg>
