<svg width="80" height="61" viewBox="0 0 80 61" fill="none" xmlns="http://www.w3.org/2000/svg">
<path fill-rule="evenodd" clip-rule="evenodd" d="M0.65438 12.6823C11.544 14.0527 18.441 10.7311 18.441 10.7311C11.1662 12.8684 3.86883 12.7444 0.519035 12.5413C0.406247 12.4229 0.349854 12.3383 0.349854 12.3383C11.3974 12.3383 27.1087 6.25907 27.1087 6.25907C27.1087 6.25907 31.1804 3.78338 34.2595 6.82865L39.1432 11.6447V7.77042C37.5191 7.4377 36.2897 5.99966 36.2897 4.27964C36.2897 2.32278 37.8856 0.721191 39.8481 0.721191C41.8275 0.721191 43.4122 2.32278 43.4122 4.27964C43.4122 5.99966 42.1941 7.4377 40.5587 7.77042V11.639L45.4367 6.82865C48.5328 3.78338 52.5875 6.25907 52.5875 6.25907C52.5875 6.25907 68.3045 12.3383 79.3464 12.3383C79.3464 12.3383 79.2956 12.4229 79.1885 12.5413C75.8274 12.7444 68.547 12.8684 61.2552 10.7311C61.2552 10.7311 68.1578 14.0527 79.0644 12.6823C77.976 13.7764 73.6224 17.0021 61.9996 13.1278C59.6367 12.3383 59.6367 12.3383 61.2101 13.1278C61.2101 13.1278 65.8908 15.8968 73.7747 16.6863C73.7747 16.6863 73.5491 17.2728 72.6637 17.848C70.532 17.7691 63.855 17.2559 57.3866 13.9286C57.3866 13.9286 63.1219 18.2879 72.5904 17.8875C70.6899 19.0436 65.9416 19.9966 54.3865 15.2088C54.3865 15.2088 52.9315 14.8197 53.9579 15.4118C54.9899 16.0039 62.3098 19.1507 68.0732 19.5793C68.0732 19.5793 67.4078 20.1714 65.9134 20.5831C62.8004 20.053 56.693 18.7503 51.031 15.9701C51.031 15.9701 56.1798 19.5003 65.637 20.6621C62.8963 21.3388 57.6178 21.4403 48.8655 17.1769C48.8655 17.1769 47.7602 16.9513 48.5892 17.3799C49.4182 17.8198 55.0181 20.882 59.8454 21.3557C60.2232 21.3952 58.6104 21.9366 56.0557 21.9648C53.8958 21.4629 50.0836 20.2899 46.5533 17.8085C46.5533 17.8085 49.5591 20.8312 55.176 21.9478C52.266 21.8351 48.4313 21.0004 44.8841 18.1695C44.8841 18.1695 42.0306 20.0643 40.5587 20.7297V32.189C41.6978 31.6701 42.8032 31.1852 43.8295 30.6325C44.7036 30.1588 45.5608 29.64 46.0853 29.0929C46.3616 28.8166 46.8579 27.6831 46.1811 27.074C45.5834 26.8259 44.5796 26.9951 43.9592 27.2094V27.1699C42.7242 27.3786 41.6302 26.8428 41.3708 25.4555C41.1395 24.0795 41.6584 23.1152 42.8596 22.8727L42.837 22.8332C44.2976 22.5456 45.5608 22.4497 47.2301 23.0193C48.0309 23.3069 48.905 23.916 49.4689 24.7619C50.0159 25.6078 50.2359 26.5439 50.2923 27.3335C50.3148 27.7282 50.3035 28.1004 50.2641 28.4726C50.2641 28.7941 50.1062 29.5385 49.9257 29.9107C49.5253 30.796 48.9501 31.4164 48.42 31.8675C47.3259 32.7585 46.2488 33.2661 45.1886 33.7116C44.5626 33.9879 43.931 34.2304 43.3107 34.456C43.7844 34.8508 44.3201 35.3188 44.6585 36.2098C45.0476 37.2249 44.636 38.3585 44.2074 38.9055C43.8577 39.4017 43.5476 39.8021 43.1641 40.2758C42.5381 41.0879 41.8163 41.821 41.1226 42.5203C41.5456 43.0391 41.9629 43.6031 42.3069 44.2911C42.8934 45.4528 43.0005 47.0939 42.1152 48.2274C41.7091 48.7913 41.2636 49.2425 40.8125 49.6541L40.8801 49.7162C41.6584 50.4944 42.493 51.2388 43.1528 52.2257C43.4686 52.7389 43.7393 53.3649 43.6603 54.0585C43.5814 54.7521 43.0964 55.2879 42.7411 55.6319C42.0588 56.365 41.2974 57.0135 40.5587 57.6508V58.57C40.6602 58.7166 40.7504 58.8745 40.8294 59.0381C41.0662 59.5513 41.0831 60.1603 40.9816 60.6961C41.1113 60.0137 40.914 59.399 40.5587 58.8802V59.9911C40.5587 60.2844 40.3218 60.5212 40.0286 60.5212H39.6733C39.3857 60.5212 39.1432 60.2844 39.1432 59.9911V58.9986C38.8951 59.5287 38.4947 60.0644 38.63 60.6115C38.5059 59.9968 38.7597 59.4441 39.1432 58.9648V57.4985C38.4721 56.9459 37.7897 56.3763 37.1807 55.7221C36.8198 55.3838 36.3348 54.848 36.2389 54.1769C36.1543 53.4833 36.4194 52.8348 36.7183 52.3328C37.3555 51.3178 38.1901 50.5677 38.9515 49.7951L39.0755 49.6711C38.5905 49.2481 38.1225 48.7913 37.6939 48.2105C36.8028 47.0939 36.8762 45.4302 37.4514 44.2742C37.7728 43.5974 38.1619 43.0504 38.5623 42.5429C37.8743 41.8605 37.1581 41.1556 36.5378 40.3717C36.1318 39.9149 35.8329 39.4976 35.4663 39.0295C35.0321 38.4825 34.6091 37.349 34.9813 36.3283C35.3253 35.3809 35.9062 34.8959 36.3912 34.4842C35.7426 34.2586 35.0828 34.0218 34.423 33.7511C33.3515 33.3112 32.2688 32.8375 31.1522 31.9465C30.6108 31.5066 30.0299 30.8975 29.6295 30.0122C29.4322 29.6625 29.2686 28.9181 29.2404 28.5741C29.2235 28.2188 29.201 27.8354 29.2235 27.435C29.2686 26.6567 29.4604 25.7149 30.013 24.8634C30.5544 24.0006 31.4116 23.3859 32.2124 23.0757C33.8647 22.4892 35.1392 22.5625 36.5886 22.8332V22.8727C37.7841 23.0983 38.3142 24.0457 38.1055 25.4386C37.8687 26.8259 36.7747 27.3786 35.5453 27.1868L35.534 27.2263C34.9249 27.0176 33.9155 26.8654 33.3233 27.1192C32.6466 27.7395 33.1711 28.873 33.4474 29.1381C33.9832 29.6625 34.8403 30.1926 35.737 30.6494C36.8085 31.2077 37.9589 31.6871 39.1432 32.2059V20.7297C37.677 20.0699 34.8234 18.1695 34.8234 18.1695C31.2762 21.0004 27.4302 21.8351 24.5146 21.9478C30.154 20.8312 33.1429 17.8085 33.1429 17.8085C29.6239 20.2899 25.8117 21.4629 23.6462 21.9648C21.1084 21.9366 19.4787 21.3952 19.8509 21.3557C24.6894 20.882 30.2894 17.8198 31.1071 17.3799C31.9473 16.9513 30.8364 17.1769 30.8364 17.1769C22.0897 21.4403 16.8225 21.3388 14.0592 20.6621C23.5277 19.5003 28.6878 15.9701 28.6878 15.9701C23.0033 18.7503 16.8958 20.053 13.7942 20.5831C12.311 20.1714 11.623 19.5793 11.623 19.5793C17.3921 19.1507 24.7233 16.0039 25.7553 15.4118C26.776 14.8197 25.3154 15.2088 25.3154 15.2088C13.7547 19.9966 9.00067 19.0436 7.11148 17.8875C16.5913 18.2879 22.3265 13.9286 22.3265 13.9286C15.8525 17.2559 9.17549 17.7691 7.03253 17.848C6.15278 17.2728 5.92721 16.6863 5.92721 16.6863C13.8111 15.8968 18.4974 13.1278 18.4974 13.1278C20.0764 12.3383 20.0764 12.3383 17.6966 13.1278C6.07947 17.0021 1.72022 13.7764 0.65438 12.6823ZM40.5587 35.973V40.0897C40.8688 39.695 41.1677 39.2946 41.4497 38.8886C41.7148 38.4994 42.0306 37.9919 42.2843 37.5577C42.4648 37.2249 42.414 37.1629 42.3746 37.1291C42.29 36.9091 41.4159 36.317 40.5587 35.973ZM40.5587 44.6689V48.0751C40.7222 47.8721 40.8688 47.6634 40.9873 47.4548C41.4497 46.7668 41.3144 45.8306 40.8801 45.1144C40.7786 44.9622 40.6771 44.8155 40.5587 44.6689ZM40.5587 50.9004V57.2222C41.179 56.5793 41.7937 55.9477 42.3351 55.2484C43.1528 54.4533 43.1641 53.5397 42.4761 52.7276C41.9572 52.0452 41.2636 51.4757 40.5587 50.9004ZM39.1432 57.0361V51.0809C38.4947 51.6279 37.863 52.1806 37.3893 52.8122C36.7352 53.6355 36.7577 54.5491 37.5924 55.3443C38.0661 55.9421 38.6018 56.4891 39.1432 57.0361ZM39.1432 47.8834V44.7084C39.0586 44.8268 38.974 44.9509 38.8951 45.075C38.4552 45.8137 38.3424 46.7386 38.8217 47.4153C38.9176 47.5732 39.0248 47.7311 39.1432 47.8834ZM39.1432 40.1687V36.0068C38.286 36.3677 37.3499 36.9881 37.2766 37.2249C37.2371 37.2531 37.1807 37.3095 37.3611 37.6535C37.6262 38.0765 37.942 38.5728 38.2296 38.9788C38.5229 39.3792 38.8274 39.7739 39.1432 40.1687Z" fill="white"/>
</svg>
