<svg width="75" height="57" viewBox="0 0 75 57" fill="none" xmlns="http://www.w3.org/2000/svg">
<path fill-rule="evenodd" clip-rule="evenodd" d="M1.16852 11.6832C11.2629 12.9535 17.6562 9.87449 17.6562 9.87449C10.9127 11.8557 4.14822 11.7407 1.04306 11.5525C0.938506 11.4428 0.88623 11.3643 0.88623 11.3643C11.127 11.3643 25.691 5.72904 25.691 5.72904C25.691 5.72904 29.4653 3.43414 32.3195 6.25702L36.8466 10.7213V7.13002C35.341 6.8216 34.2014 5.48857 34.2014 3.89417C34.2014 2.08021 35.6808 0.595581 37.5 0.595581C39.3349 0.595581 40.8038 2.08021 40.8038 3.89417C40.8038 5.48857 39.6747 6.8216 38.1587 7.13002V10.7161L42.6805 6.25702C45.5504 3.43414 49.3091 5.72904 49.3091 5.72904C49.3091 5.72904 63.8782 11.3643 74.1138 11.3643C74.1138 11.3643 74.0667 11.4428 73.9674 11.5525C70.8518 11.7407 64.103 11.8557 57.3438 9.87449C57.3438 9.87449 63.7423 12.9535 73.8524 11.6832C72.8435 12.6974 68.8078 15.6875 58.0338 12.0962C55.8435 11.3643 55.8435 11.3643 57.302 12.0962C57.302 12.0962 61.6409 14.6629 68.949 15.3948C68.949 15.3948 68.7399 15.9384 67.9191 16.4717C65.9431 16.3985 59.7537 15.9228 53.7577 12.8385C53.7577 12.8385 59.0741 16.8794 67.8512 16.5082C66.0895 17.5799 61.6879 18.4634 50.9766 14.0252C50.9766 14.0252 49.6279 13.6645 50.5793 14.2134C51.536 14.7622 58.3214 17.6792 63.6639 18.0765C63.6639 18.0765 63.0471 18.6254 61.6618 19.007C58.7761 18.5156 53.1147 17.3081 47.8662 14.7309C47.8662 14.7309 52.639 18.0033 61.4056 19.0802C58.865 19.7075 53.972 19.8016 45.8589 15.8496C45.8589 15.8496 44.8343 15.6405 45.6027 16.0378C46.3712 16.4455 51.5621 19.2841 56.0369 19.7232C56.3872 19.7598 54.8921 20.2616 52.524 20.2878C50.5218 19.8225 46.988 18.7352 43.7156 16.4351C43.7156 16.4351 46.5019 19.237 51.7085 20.2721C49.0111 20.1675 45.4563 19.3939 42.1682 16.7696C42.1682 16.7696 39.5231 18.5261 38.1587 19.1429V29.7653C39.2146 29.2844 40.2392 28.8348 41.1907 28.3225C42.0009 27.8834 42.7955 27.4025 43.2817 26.8954C43.5378 26.6392 43.9979 25.5885 43.3706 25.0239C42.8164 24.7939 41.8859 24.9507 41.3109 25.1494V25.1128C40.1661 25.3062 39.1519 24.8096 38.9114 23.5236C38.6971 22.2481 39.1781 21.3542 40.2915 21.1294L40.2706 21.0928C41.6245 20.8262 42.7955 20.7373 44.3429 21.2653C45.0852 21.5319 45.8955 22.0965 46.4182 22.8806C46.9253 23.6648 47.1292 24.5325 47.1814 25.2644C47.2023 25.6303 47.1919 25.9753 47.1553 26.3204C47.1553 26.6183 47.0089 27.3084 46.8416 27.6534C46.4705 28.4741 45.9373 29.0491 45.4459 29.4674C44.4317 30.2933 43.4333 30.7638 42.4505 31.1768C41.8702 31.4329 41.2848 31.6577 40.7097 31.8668C41.1488 32.2327 41.6455 32.6666 41.9591 33.4926C42.3198 34.4335 41.9382 35.4843 41.5409 35.9913C41.2168 36.4514 40.9293 36.8225 40.5738 37.2616C39.9936 38.0144 39.3244 38.694 38.6814 39.3422C39.0735 39.8231 39.4603 40.3459 39.7792 40.9836C40.3229 42.0605 40.4222 43.5817 39.6015 44.6325C39.2251 45.1552 38.8121 45.5734 38.3939 45.9551L38.4566 46.0126C39.1781 46.734 39.9517 47.424 40.5634 48.3388C40.8561 48.8145 41.107 49.3948 41.0338 50.0378C40.9607 50.6808 40.5111 51.1774 40.1817 51.4963C39.5492 52.1758 38.8435 52.777 38.1587 53.3677V54.2198C38.2528 54.3557 38.3364 54.5021 38.4096 54.6537C38.6292 55.1294 38.6448 55.694 38.5507 56.1906C38.671 55.5581 38.488 54.9883 38.1587 54.5073V55.5372C38.1587 55.809 37.9391 56.0285 37.6673 56.0285H37.338C37.0714 56.0285 36.8466 55.809 36.8466 55.5372V54.6171C36.6166 55.1085 36.2454 55.6051 36.3709 56.1122C36.2559 55.5424 36.4911 55.0301 36.8466 54.5857V53.2266C36.2245 52.7143 35.592 52.1863 35.0274 51.5799C34.6928 51.2662 34.2432 50.7696 34.1544 50.1475C34.076 49.5046 34.3217 48.9034 34.5987 48.4381C35.1894 47.4972 35.9631 46.8019 36.6688 46.0857L36.7838 45.9707C36.3343 45.5787 35.9004 45.1552 35.5031 44.6168C34.6771 43.5817 34.7451 42.0396 35.2783 40.968C35.5763 40.3407 35.937 39.8336 36.3081 39.3631C35.6704 38.7306 35.0065 38.0771 34.4314 37.3505C34.055 36.9271 33.778 36.5402 33.4382 36.1063C33.0357 35.5993 32.6436 34.5485 32.9886 33.6023C33.3075 32.7241 33.846 32.2745 34.2955 31.8929C33.6944 31.6838 33.0827 31.4643 32.4711 31.2134C31.4779 30.8056 30.4742 30.3665 29.4391 29.5405C28.9373 29.1328 28.3988 28.5682 28.0277 27.7475C27.8447 27.4234 27.6931 26.7333 27.667 26.4145C27.6513 26.0851 27.6304 25.7297 27.6513 25.3585C27.6931 24.6371 27.8709 23.7641 28.3832 22.9747C28.885 22.1749 29.6796 21.6051 30.4219 21.3176C31.9536 20.7739 33.135 20.8419 34.4785 21.0928V21.1294C35.5867 21.3385 36.0781 22.2167 35.8847 23.5079C35.6651 24.7939 34.651 25.3062 33.5114 25.1285L33.5009 25.1651C32.9364 24.9717 32.0006 24.8305 31.4517 25.0658C30.8244 25.6408 31.3106 26.6915 31.5667 26.9372C32.0634 27.4234 32.8579 27.9148 33.6891 28.3382C34.6824 28.8557 35.7488 29.3001 36.8466 29.781V19.1429C35.4874 18.5313 32.8423 16.7696 32.8423 16.7696C29.5541 19.3939 25.9889 20.1675 23.2863 20.2721C28.5138 19.237 31.2844 16.4351 31.2844 16.4351C28.0225 18.7352 24.4886 19.8225 22.4813 20.2878C20.1289 20.2616 18.6181 19.7598 18.9631 19.7232C23.4483 19.2841 28.6393 16.4455 29.3973 16.0378C30.1762 15.6405 29.1464 15.8496 29.1464 15.8496C21.0384 19.8016 16.1559 19.7075 13.5944 19.0802C22.3715 18.0033 27.1547 14.7309 27.1547 14.7309C21.8853 17.3081 16.2239 18.5156 13.3487 19.007C11.9739 18.6254 11.3361 18.0765 11.3361 18.0765C16.6839 17.6792 23.4797 14.7622 24.4364 14.2134C25.3825 13.6645 24.0286 14.0252 24.0286 14.0252C13.3121 18.4634 8.9053 17.5799 7.15407 16.5082C15.9416 16.8794 21.258 12.8385 21.258 12.8385C15.2568 15.9228 9.06735 16.3985 7.08088 16.4717C6.26538 15.9384 6.05628 15.3948 6.05628 15.3948C13.3644 14.6629 17.7085 12.0962 17.7085 12.0962C19.1722 11.3643 19.1722 11.3643 16.9662 12.0962C6.19742 15.6875 2.15653 12.6974 1.16852 11.6832ZM38.1587 33.273V37.0891C38.4462 36.7232 38.7233 36.352 38.9846 35.9757C39.2303 35.615 39.5231 35.1445 39.7583 34.742C39.9256 34.4335 39.8785 34.376 39.842 34.3447C39.7635 34.1408 38.9533 33.5919 38.1587 33.273ZM38.1587 41.3339V44.4913C38.3103 44.3031 38.4462 44.1097 38.556 43.9163C38.9846 43.2785 38.8592 42.4108 38.4566 41.7469C38.3626 41.6057 38.2685 41.4698 38.1587 41.3339ZM38.1587 47.1103V52.9704C38.7337 52.3745 39.3035 51.789 39.8054 51.1408C40.5634 50.4037 40.5738 49.5568 39.936 48.8041C39.4551 48.1715 38.8121 47.6436 38.1587 47.1103ZM36.8466 52.7979V47.2776C36.2454 47.7847 35.6599 48.297 35.2208 48.8825C34.6144 49.6457 34.6353 50.4926 35.409 51.2296C35.8481 51.7838 36.3447 52.2908 36.8466 52.7979ZM36.8466 44.3136V41.3705C36.7682 41.4803 36.6897 41.5953 36.6166 41.7103C36.2088 42.3951 36.1043 43.2524 36.5486 43.8797C36.6375 44.0261 36.7368 44.1725 36.8466 44.3136ZM36.8466 37.1623V33.3044C36.052 33.6389 35.1842 34.214 35.1162 34.4335C35.0797 34.4597 35.0274 34.5119 35.1947 34.8308C35.4403 35.2229 35.7331 35.6829 35.9997 36.0593C36.2715 36.4305 36.5538 36.7964 36.8466 37.1623Z" fill="#4262FF"/>
</svg>
