<svg width="85" height="61" viewBox="0 0 85 61" fill="none" xmlns="http://www.w3.org/2000/svg">
<g clip-path="url(#clip0_318_163)">
<path fill-rule="evenodd" clip-rule="evenodd" d="M85 10.2943C74.4351 11.6587 65.3339 9.14948 55.2657 5.35428C54.675 5.0354 53.0544 4.26172 51.0732 4.26172C50.0015 4.26172 48.956 4.49173 48.0203 4.9413C47.7119 2.1707 45.3542 0.0117188 42.5 0.0117188C39.6353 0.0117188 37.2881 2.1707 36.9692 4.9413C36.0335 4.49173 35.0089 4.26172 33.9164 4.26172C31.9403 4.26172 30.3146 5.0354 29.7343 5.35428C19.5981 9.17039 10.6119 11.6482 0 10.2943C8.1393 18.58 19.2008 26.1443 31.2033 23.8807C30.7223 24.7799 30.4557 25.794 30.3825 26.9388C30.3668 27.4198 30.3825 27.8746 30.4191 28.2091C30.4348 28.7058 30.6335 29.746 30.968 30.3629C31.4176 31.3509 32.0867 32.1978 33.0224 32.9714C33.9791 33.7347 34.9148 34.2365 35.814 34.6338C35.2651 36.3223 35.8192 38.1258 36.6242 39.1295C36.9902 39.6157 37.2986 40.0182 37.6593 40.4416C37.905 40.7553 38.1507 41.0323 38.4068 41.3042C38.3545 41.4192 38.2918 41.5289 38.2395 41.6492C37.4293 43.3063 37.2515 45.8103 38.663 47.6138C38.3232 47.9954 37.9729 48.4398 37.6593 48.9416C37.0215 49.9923 36.7654 51.0692 36.917 52.1252C37.1104 53.5732 38.0932 54.5246 38.3911 54.8174C38.6734 55.1206 38.9662 55.3924 39.2589 55.659C39.0341 56.1295 38.9087 56.6575 38.9087 57.2168C38.9087 59.1981 40.5135 60.8081 42.5 60.8081C44.4865 60.8081 46.0913 59.1981 46.0913 57.2168C46.0913 56.6888 45.9815 56.187 45.7777 55.7374C46.1279 55.4342 46.4573 55.0997 46.7709 54.7703C47.3355 54.211 48.1092 53.3118 48.266 51.9893C48.3914 50.9281 48.1301 49.8512 47.4557 48.7848C47.1473 48.3143 46.8284 47.9222 46.4938 47.5563C47.8373 45.6901 47.6178 43.2436 46.7866 41.6335C46.7134 41.4923 46.6507 41.3617 46.5827 41.2414C46.8389 40.9539 47.0846 40.6612 47.3146 40.3632C47.7066 39.8875 48.0203 39.485 48.3287 39.0406C49.1338 38.0003 49.6722 36.2334 49.1338 34.5763C50.0224 34.1581 50.9529 33.6406 51.9096 32.8512C52.8035 32.0723 53.4569 31.2254 53.8542 30.3367C54.2097 29.6206 54.3927 28.5907 54.4136 28.1569C54.445 27.7439 54.4554 27.2943 54.4293 26.7663C54.3509 25.6895 54.079 24.7014 53.619 23.8337C65.5169 26.3377 76.7771 18.5643 85 10.2943Z" fill="#30D5C8"/>
<path d="M42.5052 8.92992C44.734 8.92992 46.5408 7.12309 46.5408 4.89425C46.5408 2.66541 44.734 0.858582 42.5052 0.858582C40.2763 0.858582 38.4695 2.66541 38.4695 4.89425C38.4695 7.12309 40.2763 8.92992 42.5052 8.92992Z" fill="#FF84A7"/>
<path fill-rule="evenodd" clip-rule="evenodd" d="M6.16852 12.6833C16.2629 13.9536 22.6562 10.8745 22.6562 10.8745C15.9127 12.8558 9.14822 12.7408 6.04306 12.5526C5.93851 12.4428 5.88623 12.3644 5.88623 12.3644C16.127 12.3644 30.691 6.7291 30.691 6.7291C30.691 6.7291 34.4653 4.4342 37.3195 7.25708L41.8466 11.7214V8.13008C40.341 7.82166 39.2014 6.48863 39.2014 4.89423C39.2014 3.08027 40.6808 1.59564 42.5 1.59564C44.3349 1.59564 45.8038 3.08027 45.8038 4.89423C45.8038 6.48863 44.6747 7.82166 43.1587 8.13008V11.7162L47.6805 7.25708C50.5504 4.4342 54.3091 6.7291 54.3091 6.7291C54.3091 6.7291 68.8782 12.3644 79.1138 12.3644C79.1138 12.3644 79.0667 12.4428 78.9674 12.5526C75.8518 12.7408 69.103 12.8558 62.3438 10.8745C62.3438 10.8745 68.7423 13.9536 78.8524 12.6833C77.8435 13.6974 73.8078 16.6876 63.0338 13.0963C60.8435 12.3644 60.8435 12.3644 62.302 13.0963C62.302 13.0963 66.6409 15.663 73.949 16.3948C73.949 16.3948 73.7399 16.9385 72.9191 17.4717C70.9431 17.3985 64.7537 16.9228 58.7577 13.8386C58.7577 13.8386 64.0741 17.8795 72.8512 17.5083C71.0895 18.58 66.6879 19.4634 55.9766 15.0252C55.9766 15.0252 54.6279 14.6645 55.5793 15.2134C56.536 15.7623 63.3214 18.6793 68.6639 19.0766C68.6639 19.0766 68.0471 19.6255 66.6618 20.0071C63.7761 19.5157 58.1147 18.3081 52.8662 15.7309C52.8662 15.7309 57.639 19.0034 66.4056 20.0803C63.865 20.7076 58.972 20.8017 50.8589 16.8496C50.8589 16.8496 49.8343 16.6405 50.6027 17.0378C51.3712 17.4456 56.5621 20.2841 61.0369 20.7233C61.3872 20.7598 59.8921 21.2617 57.524 21.2878C55.5218 20.8226 51.988 19.7352 48.7156 17.4351C48.7156 17.4351 51.5019 20.2371 56.7085 21.2721C54.0111 21.1676 50.4563 20.3939 47.1682 17.7697C47.1682 17.7697 44.5231 19.5261 43.1587 20.143V30.7654C44.2146 30.2844 45.2392 29.8349 46.1907 29.3226C47.0009 28.8835 47.7955 28.4025 48.2817 27.8955C48.5378 27.6393 48.9979 26.5886 48.3706 26.024C47.8164 25.794 46.8859 25.9508 46.3109 26.1495V26.1129C45.1661 26.3063 44.1519 25.8097 43.9114 24.5237C43.6971 23.2482 44.1781 22.3543 45.2915 22.1295L45.2706 22.0929C46.6245 21.8263 47.7955 21.7374 49.3429 22.2654C50.0852 22.532 50.8955 23.0966 51.4182 23.8807C51.9253 24.6648 52.1292 25.5326 52.1814 26.2645C52.2023 26.6304 52.1919 26.9754 52.1553 27.3204C52.1553 27.6184 52.0089 28.3084 51.8416 28.6535C51.4705 29.4742 50.9373 30.0492 50.4459 30.4674C49.4317 31.2934 48.4333 31.7638 47.4505 32.1768C46.8702 32.433 46.2848 32.6578 45.7097 32.8669C46.1488 33.2328 46.6455 33.6667 46.9591 34.4926C47.3198 35.4336 46.9382 36.4843 46.5409 36.9914C46.2168 37.4514 45.9293 37.8226 45.5738 38.2617C44.9936 39.0145 44.3244 39.694 43.6814 40.3423C44.0735 40.8232 44.4603 41.3459 44.7792 41.9837C45.3229 43.0606 45.4222 44.5818 44.6015 45.6325C44.2251 46.1553 43.8121 46.5735 43.3939 46.9551L43.4566 47.0126C44.1781 47.734 44.9517 48.4241 45.5634 49.3389C45.8561 49.8146 46.107 50.3948 46.0338 51.0378C45.9607 51.6808 45.5111 52.1774 45.1817 52.4963C44.5492 53.1759 43.8435 53.7771 43.1587 54.3678V55.2199C43.2528 55.3558 43.3364 55.5022 43.4096 55.6538C43.6292 56.1295 43.6448 56.694 43.5507 57.1907C43.671 56.5581 43.488 55.9883 43.1587 55.5074V56.5372C43.1587 56.809 42.9391 57.0286 42.6673 57.0286H42.338C42.0714 57.0286 41.8466 56.809 41.8466 56.5372V55.6172C41.6166 56.1086 41.2454 56.6052 41.3709 57.1122C41.2559 56.5424 41.4911 56.0301 41.8466 55.5858V54.2266C41.2245 53.7143 40.592 53.1864 40.0274 52.58C39.6928 52.2663 39.2432 51.7697 39.1544 51.1476C39.076 50.5046 39.3217 49.9035 39.5987 49.4382C40.1894 48.4972 40.9631 47.802 41.6688 47.0858L41.7838 46.9708C41.3343 46.5787 40.9004 46.1553 40.5031 45.6169C39.6771 44.5818 39.7451 43.0397 40.2783 41.968C40.5763 41.3407 40.937 40.8336 41.3081 40.3632C40.6704 39.7306 40.0065 39.0772 39.4314 38.3506C39.055 37.9271 38.778 37.5403 38.4382 37.1064C38.0357 36.5993 37.6436 35.5486 37.9886 34.6024C38.3075 33.7242 38.846 33.2746 39.2955 32.893C38.6944 32.6839 38.0827 32.4643 37.4711 32.2134C36.4779 31.8057 35.4742 31.3666 34.4391 30.5406C33.9373 30.1328 33.3988 29.5683 33.0277 28.7475C32.8447 28.4234 32.6931 27.7334 32.667 27.4145C32.6513 27.0852 32.6304 26.7297 32.6513 26.3586C32.6931 25.6372 32.8709 24.7642 33.3832 23.9748C33.885 23.175 34.6796 22.6052 35.4219 22.3177C36.9536 21.774 38.135 21.842 39.4785 22.0929V22.1295C40.5867 22.3386 41.0781 23.2168 40.8847 24.508C40.6651 25.794 39.651 26.3063 38.5114 26.1285L38.5009 26.1651C37.9364 25.9717 37.0006 25.8306 36.4517 26.0658C35.8244 26.6408 36.3106 27.6916 36.5667 27.9373C37.0634 28.4234 37.8579 28.9148 38.6891 29.3383C39.6824 29.8558 40.7488 30.3001 41.8466 30.7811V20.143C40.4874 19.5314 37.8423 17.7697 37.8423 17.7697C34.5541 20.3939 30.9889 21.1676 28.2863 21.2721C33.5138 20.2371 36.2844 17.4351 36.2844 17.4351C33.0225 19.7352 29.4886 20.8226 27.4813 21.2878C25.1289 21.2617 23.6181 20.7598 23.9631 20.7233C28.4483 20.2841 33.6393 17.4456 34.3973 17.0378C35.1762 16.6405 34.1464 16.8496 34.1464 16.8496C26.0384 20.8017 21.1559 20.7076 18.5944 20.0803C27.3715 19.0034 32.1547 15.7309 32.1547 15.7309C26.8853 18.3081 21.2239 19.5157 18.3487 20.0071C16.9739 19.6255 16.3361 19.0766 16.3361 19.0766C21.6839 18.6793 28.4797 15.7623 29.4364 15.2134C30.3825 14.6645 29.0286 15.0252 29.0286 15.0252C18.3121 19.4634 13.9053 18.58 12.1541 17.5083C20.9416 17.8795 26.258 13.8386 26.258 13.8386C20.2568 16.9228 14.0674 17.3985 12.0809 17.4717C11.2654 16.9385 11.0563 16.3948 11.0563 16.3948C18.3644 15.663 22.7085 13.0963 22.7085 13.0963C24.1722 12.3644 24.1722 12.3644 21.9662 13.0963C11.1974 16.6876 7.15653 13.6974 6.16852 12.6833ZM43.1587 34.2731V38.0892C43.4462 37.7233 43.7233 37.3521 43.9846 36.9757C44.2303 36.615 44.5231 36.1445 44.7583 35.742C44.9256 35.4336 44.8785 35.3761 44.842 35.3447C44.7635 35.1408 43.9533 34.592 43.1587 34.2731ZM43.1587 42.334V45.4914C43.3103 45.3032 43.4462 45.1098 43.556 44.9164C43.9846 44.2786 43.8592 43.4108 43.4566 42.7469C43.3626 42.6058 43.2685 42.4699 43.1587 42.334ZM43.1587 48.1104V53.9705C43.7337 53.3745 44.3035 52.7891 44.8054 52.1408C45.5634 51.4038 45.5738 50.5569 44.936 49.8041C44.4551 49.1716 43.8121 48.6436 43.1587 48.1104ZM41.8466 53.798V48.2777C41.2454 48.7848 40.6599 49.2971 40.2208 49.8825C39.6144 50.6458 39.6353 51.4926 40.409 52.2297C40.8481 52.7838 41.3447 53.2909 41.8466 53.798ZM41.8466 45.3137V42.3705C41.7682 42.4803 41.6897 42.5953 41.6166 42.7103C41.2088 43.3951 41.1043 44.2525 41.5486 44.8798C41.6375 45.0261 41.7368 45.1725 41.8466 45.3137ZM41.8466 38.1624V34.3044C41.052 34.639 40.1842 35.214 40.1162 35.4336C40.0797 35.4597 40.0274 35.512 40.1947 35.8309C40.4403 36.2229 40.7331 36.683 40.9997 37.0594C41.2715 37.4305 41.5538 37.7964 41.8466 38.1624Z" fill="#FF84A7"/>
<path fill-rule="evenodd" clip-rule="evenodd" d="M42.2124 8.87762H42.8136C42.8763 8.84625 43.3468 8.7992 43.6238 8.71556C43.8591 8.64761 44.0995 8.55351 44.3086 8.44373C44.5334 8.3235 44.7268 8.20326 44.9046 8.07257L45.166 7.85302C45.8403 7.32503 46.5356 6.04951 46.4885 4.84195C46.4572 4.03168 46.2376 3.26845 45.788 2.64638C45.7096 2.54182 45.6626 2.47387 45.5789 2.37454C45.2235 1.94066 44.8157 1.57995 44.2354 1.30812C43.8904 1.1513 43.5297 1.02583 43.1429 0.963103C43.054 0.947421 42.777 0.931738 42.7299 0.910828H42.2751C42.1653 0.957876 41.5903 0.910828 40.7591 1.31858C40.2782 1.55382 39.9436 1.82565 39.6404 2.12885C39.4836 2.28045 39.3581 2.45818 39.2118 2.65683C39.0759 2.83979 38.9713 3.0489 38.8615 3.27368C38.2394 4.59102 38.4904 6.25861 39.3791 7.36686C40.5605 8.84625 42.0451 8.80443 42.2124 8.87762ZM40.3827 1.93543C40.4925 1.94066 40.6441 1.97202 40.7382 2.01384C40.8219 2.05043 40.7644 2.08703 40.9316 2.08703C40.9525 2.08703 40.9578 2.08703 40.9787 2.0818C41.031 2.06612 40.9891 2.08703 41.0205 2.06089C40.9839 1.97725 40.9055 2.00861 40.7957 2.00339C40.8166 1.96157 40.8271 1.95634 40.8166 1.89884L40.6337 1.89361C40.7016 1.82565 40.9107 1.65314 41.0519 1.75246C41.1198 1.80474 41.078 1.8727 41.2244 1.87792C41.3812 1.88315 41.3132 1.75769 41.4544 1.81519C41.4492 1.83088 41.3864 1.90406 41.3655 1.92497C41.3028 1.97202 41.2453 1.95634 41.1669 1.95634L41.1721 2.07657C41.4283 2.10271 41.3446 2.04521 41.4701 2.01384L41.5799 1.9877C41.6008 1.80997 41.5537 1.97725 41.5119 1.87792C41.5694 1.75769 41.6374 1.79428 41.8308 1.80997C41.7994 1.88315 41.5537 2.01907 41.8726 2.03998L41.8674 1.86747C41.9667 1.8361 42.0817 1.76292 42.2385 1.78383C42.3169 1.79428 42.4894 1.89361 42.5783 1.92497V2.06089L42.6829 2.09225L42.6358 2.18635L42.4842 2.19158L42.4319 2.30136L42.1235 2.21249L42.2803 2.11839C42.364 2.06612 42.3117 2.11839 42.3483 2.05043C42.2281 1.99816 42.2699 1.96679 42.066 2.00861C41.9092 2.04521 42.0294 2.09225 41.8099 2.12885C41.8046 2.22294 41.8203 2.14976 41.8412 2.21772C41.6739 2.24908 41.8255 2.26476 41.6896 2.2909C41.6269 2.24385 41.6739 2.25431 41.6321 2.19158C41.4283 2.22817 41.3342 2.34318 41.1669 2.41114C41.1878 2.67774 41.3132 2.56796 41.4648 2.65683L41.4701 2.83457C41.6269 2.85025 41.5485 2.69342 41.7158 2.64638C41.7785 2.62546 41.7785 2.63069 41.8203 2.59933C41.8308 2.46864 41.7942 2.36409 41.8987 2.30658C41.9719 2.26476 42.0974 2.32227 42.1915 2.33795L42.181 2.50523C42.3274 2.50523 42.3326 2.43205 42.4424 2.43205L42.4476 2.63069C42.5626 2.69342 42.5888 2.68297 42.5783 2.84502L42.4476 2.88684C42.4738 2.96526 42.4738 2.93389 42.5574 2.97048C42.6254 3.00708 42.6254 3.00185 42.6045 3.09072C42.5626 3.09072 42.4319 3.05935 42.3954 3.03844C42.3013 2.98094 42.411 2.97048 42.411 2.8607C42.3013 2.85548 42.3483 2.94435 42.2072 2.91821C42.1183 2.90253 42.1549 2.79797 41.9981 2.87116C41.9771 2.99139 42.0242 2.93912 42.1078 2.98094L42.0608 3.04367C42.019 3.02799 42.0033 3.0123 41.9458 3.00708C41.606 3.39392 41.7158 3.13254 41.4073 3.48278C41.261 3.64484 41.4858 3.54551 41.1616 3.75984C40.9787 3.88008 41.0205 3.86439 41.01 4.11532L40.8637 4.05259L40.8584 3.92713C40.5971 3.91144 40.4507 3.89576 40.2468 4.01077C40.1789 4.05259 40.137 4.15191 40.1057 4.2251C40.0482 4.36624 40.0848 4.37147 40.1266 4.4917C40.2573 4.50738 40.2886 4.53875 40.388 4.46556C40.4402 4.42897 40.5291 4.35578 40.5971 4.3401C40.6284 4.48125 40.5709 4.46034 40.5396 4.58057L40.7434 4.61716L40.7644 4.9465L41.0571 4.99355C41.193 4.84717 41.2139 4.74262 41.4283 4.82104C41.4858 4.84195 41.5119 4.88377 41.5328 4.93604C41.6164 4.93082 41.7053 4.94127 41.768 4.89945C41.8831 4.82104 41.7001 4.90991 41.7994 4.87331C41.951 4.95173 41.9301 5.01446 42.0242 5.12946H42.2438C42.3378 5.23924 42.3326 5.29152 42.3483 5.4588C42.6201 5.58426 42.6149 5.54244 42.9286 5.56858C43.0279 5.75154 42.9808 5.67313 43.1481 5.76722C43.1481 5.89791 43.1063 5.92928 43.0383 6.00769C42.9129 6.16975 43.0017 6.46772 42.8815 6.57227C42.777 6.66114 42.7456 6.635 42.5731 6.635C42.5469 6.69773 42.5156 6.70818 42.5208 6.78137C42.526 7.03752 42.6567 6.86501 42.3901 7.2048C42.2542 7.37208 42.2751 7.42436 42.0712 7.50277C42.0085 7.52368 41.951 7.51845 41.8987 7.54459C41.904 7.63346 41.8987 7.57596 41.9301 7.6021L41.9876 7.63869C41.9719 7.75892 41.7837 7.82688 42.0503 7.85302L42.0137 8.08303C42.0817 8.13531 42.181 8.17713 42.1549 8.26599C42.1026 8.29213 42.1287 8.28168 42.0608 8.2869C41.8308 8.29213 41.7001 8.06212 41.5955 7.87916C41.4858 7.70142 41.6321 7.58641 41.5276 7.44527C41.4805 7.38777 41.4439 7.37731 41.4492 7.29367C41.4544 7.22571 41.4805 7.13684 41.491 7.06366L41.4648 7.04797C41.4648 7.04275 41.4544 7.03752 41.4544 7.03752L41.4178 6.3893C41.3551 6.36316 41.3342 6.33703 41.2714 6.29521C41.2035 6.24816 41.1773 6.24816 41.0937 6.21679C41.0623 6.15929 41.078 6.14884 41.0519 6.09133C40.9996 5.98155 40.8584 5.877 40.8062 5.77768C40.7853 5.73586 40.8062 5.54244 40.8166 5.46925C40.8323 5.38038 40.9369 5.34902 41.0048 5.28629C41.0048 5.20788 41.0048 5.12424 40.9682 5.05628C40.6493 5.03537 40.7644 5.08764 40.5971 4.91513C40.2677 4.58057 40.3148 4.89422 40.2416 4.69035C40.2311 4.66421 40.2416 4.67989 40.2259 4.63807C40.0848 4.61716 40.1266 4.69558 39.8443 4.60671C39.7659 4.58057 39.7711 4.55966 39.7345 4.49693C39.5986 4.28783 39.792 4.39238 39.6561 4.20419C39.3738 3.83303 39.5829 3.79644 39.4104 3.79121C39.3686 4.06827 39.5725 4.08918 39.5568 4.29305C39.3947 4.29828 39.4 4.2251 39.3268 4.10486C39.2693 4.00554 39.2902 3.88008 39.285 3.73893L39.1334 3.67098V3.50369C38.9661 3.72325 38.8511 4.50216 38.8458 4.85763C38.8406 5.35425 38.9399 5.85086 39.1072 6.25339C39.9593 8.34441 42.526 9.22264 44.4602 7.98371C44.8941 7.70142 44.9882 7.56027 45.328 7.21003C45.2914 7.18912 45.3071 7.21003 45.281 7.19957L45.2182 7.17344C45.2182 7.05843 45.2391 6.98002 45.1816 6.9016C45.1241 6.81796 45.0771 6.81273 45.0771 6.67682C45.0771 6.52522 45.1084 6.49908 45.0248 6.41544C44.9516 6.34225 44.9464 6.27952 45.0039 6.17497C45.1346 5.92928 45.0875 5.97633 44.9621 5.75154C44.7948 5.43789 44.8732 5.58949 44.868 5.23401C44.7843 5.21833 44.6798 5.22356 44.6223 5.18174C44.387 5.00923 44.4916 5.19742 44.1675 5.19219C43.8016 5.18697 43.9688 5.33334 43.5977 4.89422C43.535 4.81581 43.5193 4.69035 43.5402 4.56489C43.5506 4.49693 43.5559 4.52829 43.582 4.4917L43.6134 4.39761C43.5454 4.3401 43.5245 4.38192 43.514 4.24601L43.9113 3.95326V3.74939C43.9636 3.72325 44.0577 3.66052 44.1152 3.65007C44.2145 3.62915 44.293 3.66575 44.387 3.62915C44.5282 3.5612 44.7112 3.55074 44.8837 3.55074L44.8889 3.74939L45.3385 3.88008C45.3385 3.81735 45.328 3.81735 45.3541 3.7703C45.5632 3.74416 45.5162 3.74939 45.6469 3.84348C45.7305 3.90622 45.8926 3.89053 46.0076 3.88008L45.9135 3.57688C45.6678 3.57165 45.6312 3.58211 45.6103 3.32073C45.5423 3.33118 45.5267 3.34164 45.5057 3.39914C45.4953 3.41483 45.4901 3.44619 45.4848 3.47233L45.4482 3.54551C45.2444 3.37823 45.3646 3.34164 45.281 3.24232C45.2705 3.22663 45.1869 3.1639 45.1607 3.14299C45.098 3.09072 45.0875 3.10117 44.9725 3.1064C44.9934 3.27891 45.098 3.28936 45.2182 3.36255L45.2025 3.4671C45.1921 3.51938 45.2235 3.51415 45.1503 3.54551C45.0666 3.58211 45.0196 3.54029 44.9934 3.47756C45.0719 3.47756 45.0719 3.48801 45.1346 3.45665C45.1084 3.37823 44.9255 3.30505 44.8262 3.18481C44.8262 3.18481 44.8209 3.17959 44.8157 3.17436C44.7321 3.26323 44.7477 3.25277 44.5909 3.24232L44.3975 3.52983C44.3609 3.58211 44.293 3.57688 44.2041 3.57688C44.1048 3.57165 44.0734 3.55597 44.0002 3.52983C43.9532 3.14299 44.0107 3.19004 44.3661 3.22663C44.3923 3.11163 44.408 3.14822 44.3191 3.10117C44.3295 2.78752 44.4498 3.03844 44.5805 2.84502C44.7112 2.64638 44.7164 2.72479 44.9569 2.71956C44.9621 2.65683 44.9569 2.59933 44.9307 2.55751L44.8 2.60455C44.7582 2.55228 44.7687 2.5366 44.7477 2.50523C44.6746 2.41636 44.6955 2.52614 44.6484 2.42682C44.6066 2.28567 44.8366 2.2909 44.9098 2.17067C44.8784 2.07657 44.5805 1.89361 44.4916 1.83088C43.42 1.11993 42.0137 1.07288 40.8689 1.63223C40.7382 1.69496 40.4768 1.80997 40.3827 1.93543Z" fill="#30D5C8"/>
</g>
<defs>
<clipPath id="clip0_318_163">
<rect width="85" height="60.8199" fill="white"/>
</clipPath>
</defs>
</svg>
