<svg width="248" height="190" viewBox="0 0 248 190" fill="none" xmlns="http://www.w3.org/2000/svg">
<path fill-rule="evenodd" clip-rule="evenodd" d="M126.168 26.0099C125.448 26.1271 124.709 26.188 123.955 26.188C123.196 26.188 122.452 26.1261 121.726 26.007V35.6373L106.402 20.5255C96.7402 10.9701 83.9642 18.7383 83.9642 18.7383C83.9642 18.7383 34.6651 37.8139 0 37.8139C0 37.8139 0.176953 38.0793 0.530859 38.4509C11.0419 39.0879 33.9396 39.4772 56.7666 32.7707C56.7666 32.7707 35.1252 43.1932 0.955547 38.8933C4.29996 42.3262 17.9784 52.4479 54.4308 40.2912C58.492 38.9439 60.3445 38.3293 60.3924 38.4475C60.4327 38.5466 59.2036 39.1612 56.9435 40.2912C56.9435 40.2912 42.2387 48.9796 17.5007 51.4569C17.5007 51.4569 18.2085 53.2972 20.9689 55.1022C27.6932 54.8544 48.6444 53.2442 68.9586 42.8039C68.9586 42.8039 50.9625 56.4824 21.2167 55.226C27.1446 58.8536 42.0618 61.8441 78.3371 46.8208C78.3371 46.8208 82.9202 45.5998 79.7174 47.4578C76.4791 49.3158 53.4752 59.1898 35.3729 60.5346C35.3729 60.5346 37.5317 62.3926 42.1856 63.6844C51.918 62.021 71.0821 57.9334 88.9189 49.2096C88.9189 49.2096 72.7277 60.2869 43.0173 63.9321C51.688 66.0556 68.2154 66.3741 95.6608 52.9964C95.6608 52.9964 99.1468 52.2886 96.5102 53.6335C96.4587 53.6611 96.4012 53.6922 96.3378 53.7263C93.2404 55.3959 76.0684 64.6521 61.1904 66.1087C60.0225 66.2325 65.1364 67.9313 73.0993 68.0197C79.8943 66.4449 91.8563 62.7642 102.898 54.9783C102.898 54.9783 93.5197 64.463 75.8244 67.9667C84.9729 67.6128 97.0411 64.9938 108.171 56.1108C108.171 56.1108 117.125 62.0741 121.726 64.1445V100.154C121.059 99.8621 120.395 99.5739 119.736 99.2874C116.722 97.9784 113.797 96.7078 111.038 95.2705C108.225 93.8372 105.535 92.1738 103.854 90.5282C102.987 89.6965 101.341 86.1397 103.464 84.1933C105.322 83.397 108.49 83.8747 110.401 84.5295L110.436 84.4056C114.294 85.0072 117.727 83.2731 118.47 78.9201C119.125 74.5493 117.461 71.5765 113.71 70.8687V70.7448C109.162 69.8955 105.163 69.6654 99.9785 71.5057C97.4658 72.479 94.7761 74.4078 93.0773 77.1151C91.3432 79.7871 90.7415 82.7422 90.6 85.1842C90.5352 86.3338 90.589 87.4389 90.6393 88.4725C90.6439 88.5685 90.6486 88.6639 90.6531 88.7586C90.7415 89.8381 91.2547 92.1738 91.874 93.2709C93.1304 96.0491 94.953 97.9602 96.6518 99.3404C100.155 102.136 103.553 103.623 106.915 105.003C108.985 105.852 111.056 106.596 113.091 107.303L113.036 107.35C111.525 108.632 109.733 110.153 108.667 113.09C107.499 116.293 108.826 119.849 110.189 121.566C110.502 121.966 110.799 122.354 111.092 122.736C111.875 123.757 112.624 124.734 113.551 125.777C115.439 128.163 117.609 130.315 119.708 132.396L119.903 132.59C118.647 134.183 117.426 135.899 116.417 138.022C114.613 141.65 114.382 146.87 117.178 150.374C118.523 152.196 119.992 153.63 121.514 154.957L121.124 155.346C120.715 155.762 120.299 156.175 119.88 156.591C117.856 158.602 115.774 160.67 114.117 163.309C113.179 164.884 112.348 166.919 112.613 169.095C112.914 171.201 114.436 172.882 115.568 173.944C117.479 175.997 119.62 177.784 121.726 179.518V184.119C120.645 185.47 119.892 187.007 120.033 188.704C120.041 188.898 120.068 189.091 120.116 189.286C120.076 189.09 120.049 188.896 120.033 188.704C119.985 187.558 120.583 186.427 121.176 185.306C121.367 184.944 121.558 184.584 121.726 184.225V187.339C121.726 188.259 122.487 189.003 123.389 189.003H124.504C125.424 189.003 126.168 188.259 126.168 187.339V183.853C127.278 185.474 127.897 187.394 127.5 189.524C127.813 187.85 127.756 185.95 127.017 184.349C126.769 183.836 126.486 183.34 126.168 182.88V179.996C126.285 179.894 126.403 179.792 126.521 179.691C128.728 177.789 130.983 175.844 133.016 173.661C134.13 172.581 135.652 170.9 135.9 168.724C136.148 166.547 135.298 164.583 134.307 162.973C132.604 160.425 130.529 158.392 128.487 156.391C128.047 155.96 127.609 155.531 127.176 155.098L126.964 154.904C128.379 153.612 129.777 152.196 131.051 150.427C133.83 146.87 133.493 141.721 131.653 138.075C130.574 135.917 129.264 134.147 127.937 132.519C130.114 130.325 132.379 128.025 134.343 125.476C135.546 123.99 136.519 122.734 137.616 121.176C138.961 119.46 140.253 115.903 139.032 112.718C137.97 109.922 136.289 108.454 134.803 107.215C136.749 106.507 138.731 105.746 140.695 104.879C144.022 103.481 147.402 101.889 150.835 99.0927C152.498 97.6771 154.303 95.7306 155.559 92.9524C156.126 91.7845 156.621 89.4488 156.621 88.4401C156.745 87.2722 156.78 86.1044 156.71 84.8657C156.533 82.3883 155.843 79.4509 154.126 76.7966C152.357 74.1423 149.614 72.2312 147.101 71.3288C141.863 69.5415 137.9 69.8424 133.316 70.7448L133.387 70.8687C129.618 71.6296 127.99 74.6555 128.716 78.9731C129.53 83.3262 132.963 85.0072 136.838 84.3525V84.4764C138.784 83.804 141.934 83.2731 143.81 84.0517C145.933 85.9628 144.376 89.5195 143.509 90.3866C141.863 92.1031 139.174 93.731 136.431 95.2174C133.699 96.6884 130.789 98.0065 127.787 99.3663C127.25 99.6096 126.71 99.8542 126.168 100.101V64.1445C130.786 62.0564 139.74 56.1108 139.74 56.1108C150.87 64.9938 162.903 67.6128 172.034 67.9667C154.409 64.463 144.978 54.9783 144.978 54.9783C156.055 62.7642 168.017 66.4449 174.794 68.0197C182.81 67.9313 187.871 66.2325 186.686 66.1087C172.05 64.6724 155.151 55.6532 151.68 53.8008C151.558 53.736 151.453 53.6801 151.366 53.6335C148.764 52.2886 152.233 52.9964 152.233 52.9964C179.696 66.3741 196.259 66.0556 204.859 63.9321C175.184 60.2869 159.028 49.2096 159.028 49.2096C176.794 57.9334 195.958 62.021 205.726 63.6844C210.415 62.3926 212.503 60.5346 212.503 60.5346C194.418 59.1898 171.45 49.3158 168.212 47.4578C164.991 45.5998 169.556 46.8208 169.556 46.8208C205.814 61.8441 220.714 58.8536 226.677 55.226C196.966 56.4824 178.97 42.8039 178.97 42.8039C199.267 53.2442 220.218 54.8544 226.907 55.1022C229.685 53.2972 230.393 51.4569 230.393 51.4569C205.655 48.9796 190.968 40.2912 190.968 40.2912C188.714 39.1601 187.489 38.5454 187.529 38.4472C187.576 38.3303 189.416 38.945 193.445 40.2912C229.915 52.4479 243.576 42.3262 246.991 38.8933C212.768 43.1932 191.109 32.7707 191.109 32.7707C213.989 39.4772 236.834 39.0879 247.38 38.4509C247.717 38.0793 247.876 37.8139 247.876 37.8139C213.228 37.8139 163.912 18.7383 163.912 18.7383C163.912 18.7383 151.189 10.9701 141.474 20.5255L126.168 35.6196V26.0099ZM126.168 124.892V111.975C128.857 113.054 131.6 114.912 131.865 115.602C131.989 115.709 132.149 115.903 131.582 116.947C130.786 118.31 129.795 119.902 128.963 121.123C128.079 122.397 127.141 123.654 126.168 124.892ZM126.168 149.949V139.261C126.539 139.721 126.858 140.181 127.176 140.659C128.539 142.906 128.963 145.844 127.512 148.003C127.141 148.657 126.681 149.312 126.168 149.949ZM126.168 178.651V158.814C128.379 160.619 130.556 162.407 132.184 164.548C134.343 167.096 134.307 169.962 131.742 172.457C130.105 174.572 128.255 176.489 126.381 178.43L126.168 178.651ZM121.726 159.381V178.067C120.027 176.35 118.346 174.634 116.86 172.758C114.241 170.263 114.17 167.397 116.223 164.813C117.709 162.831 119.691 161.097 121.726 159.381ZM121.726 139.385V149.347C121.354 148.87 121.018 148.374 120.717 147.879C119.213 145.755 119.567 142.853 120.947 140.535C121.195 140.146 121.461 139.757 121.726 139.385ZM121.726 112.081V125.14C120.735 123.902 119.78 122.663 118.859 121.406C117.957 120.132 116.966 118.575 116.134 117.248C115.568 116.169 115.745 115.992 115.869 115.903C116.099 115.16 119.036 113.214 121.726 112.081Z" fill="#6196B2"/>
<path fill-rule="evenodd" clip-rule="evenodd" d="M122.507 26.9677H124.542C124.754 26.8615 126.347 26.7022 127.285 26.4191C128.081 26.1891 128.895 25.8705 129.603 25.4989C130.364 25.0919 131.018 24.685 131.62 24.2426L132.505 23.4994C134.788 21.7121 137.141 17.3945 136.982 13.3069C136.876 10.5641 136.132 7.98058 134.611 5.87484C134.345 5.52094 134.186 5.2909 133.903 4.95469C132.699 3.48598 131.319 2.265 129.355 1.34484C128.187 0.813984 126.966 0.389297 125.657 0.176953C125.356 0.123867 124.418 0.0707812 124.259 0H122.719C122.348 0.159258 120.401 0 117.588 1.38023C115.96 2.17652 114.827 3.09668 113.801 4.12301C113.27 4.63617 112.845 5.23781 112.35 5.91023C111.89 6.52957 111.536 7.23738 111.164 7.99828C109.059 12.4575 109.908 18.1023 112.916 21.8537C116.915 26.8615 121.941 26.7199 122.507 26.9677ZM116.314 3.46828C116.685 3.48598 117.198 3.59215 117.517 3.73371C117.8 3.85758 117.605 3.98144 118.172 3.98144C118.242 3.98144 118.26 3.98144 118.331 3.96375C118.508 3.91066 118.366 3.98144 118.472 3.89297C118.349 3.60984 118.083 3.71601 117.712 3.69832C117.782 3.55676 117.818 3.53906 117.782 3.34441L117.163 3.32672C117.393 3.09668 118.101 2.51273 118.579 2.84894C118.809 3.0259 118.667 3.25594 119.163 3.27363C119.693 3.29133 119.463 2.86664 119.941 3.06129C119.923 3.11437 119.711 3.36211 119.64 3.43289C119.428 3.59215 119.233 3.53906 118.968 3.53906L118.986 3.94605C119.853 4.03453 119.57 3.83988 119.994 3.73371L120.366 3.64523C120.437 3.04359 120.277 3.60984 120.136 3.27363C120.33 2.86664 120.56 2.99051 121.215 3.04359C121.109 3.29133 120.277 3.75141 121.357 3.82219L121.339 3.23824C121.675 3.13207 122.065 2.88434 122.595 2.95512C122.861 2.99051 123.445 3.32672 123.746 3.43289V3.89297L124.1 3.99914L123.94 4.31766L123.427 4.33535L123.25 4.70695L122.206 4.40613L122.737 4.08762C123.02 3.91066 122.843 4.08762 122.967 3.85758C122.56 3.68062 122.702 3.57445 122.011 3.71601C121.481 3.83988 121.888 3.99914 121.144 4.12301C121.127 4.44152 121.18 4.19379 121.251 4.42383C120.684 4.53 121.198 4.58309 120.737 4.67156C120.525 4.5123 120.684 4.54769 120.543 4.33535C119.853 4.45922 119.534 4.84851 118.968 5.07855C119.039 5.98101 119.463 5.60941 119.977 5.91023L119.994 6.51187C120.525 6.56496 120.26 6.0341 120.826 5.87484C121.038 5.80406 121.038 5.82176 121.18 5.71558C121.215 5.2732 121.091 4.9193 121.445 4.72465C121.693 4.58309 122.118 4.77773 122.436 4.83082L122.401 5.39707C122.896 5.39707 122.914 5.14933 123.286 5.14933L123.303 5.82176C123.693 6.0341 123.781 5.99871 123.746 6.54726L123.303 6.68883C123.392 6.95426 123.392 6.84808 123.675 6.97195C123.905 7.09582 123.905 7.07812 123.834 7.37894C123.693 7.37894 123.25 7.27277 123.126 7.20199C122.808 7.00734 123.179 6.97195 123.179 6.60035C122.808 6.58266 122.967 6.88348 122.489 6.795C122.188 6.74191 122.312 6.38801 121.781 6.63574C121.711 7.04273 121.87 6.86578 122.153 7.00734L121.994 7.21969C121.852 7.1666 121.799 7.11351 121.604 7.09582C120.454 8.40527 120.826 7.52051 119.782 8.70609C119.286 9.25465 120.047 8.91844 118.95 9.64394C118.331 10.0509 118.472 9.99785 118.437 10.8472L117.942 10.6349L117.924 10.2102C117.039 10.1571 116.544 10.104 115.854 10.4933C115.623 10.6349 115.482 10.9711 115.376 11.2188C115.181 11.6966 115.305 11.7143 115.447 12.1213C115.889 12.1744 115.995 12.2805 116.331 12.0328C116.508 11.9089 116.809 11.6612 117.039 11.6081C117.145 12.0859 116.951 12.0151 116.844 12.4221L117.535 12.546L117.605 13.6608L118.596 13.82C119.056 13.3246 119.127 12.9707 119.853 13.2361C120.047 13.3069 120.136 13.4484 120.207 13.6254C120.49 13.6077 120.791 13.6431 121.003 13.5015C121.392 13.2361 120.773 13.5369 121.109 13.413C121.622 13.6785 121.551 13.8908 121.87 14.2801H122.613C122.932 14.6517 122.914 14.8287 122.967 15.3949C123.887 15.8196 123.869 15.678 124.931 15.7665C125.267 16.3859 125.108 16.1204 125.674 16.4389C125.674 16.8813 125.533 16.9875 125.303 17.2529C124.878 17.8015 125.179 18.8101 124.772 19.164C124.418 19.4648 124.312 19.3764 123.728 19.3764C123.639 19.5887 123.533 19.6241 123.551 19.8718C123.569 20.7389 124.011 20.155 123.109 21.3052C122.649 21.8714 122.719 22.0484 122.029 22.3138C121.817 22.3846 121.622 22.3669 121.445 22.4553C121.463 22.7562 121.445 22.5615 121.551 22.65L121.746 22.7739C121.693 23.1809 121.056 23.4109 121.958 23.4994L121.835 24.278C122.065 24.4549 122.401 24.5965 122.312 24.8973C122.135 24.9858 122.224 24.9504 121.994 24.9681C121.215 24.9858 120.773 24.2072 120.419 23.5878C120.047 22.9862 120.543 22.5969 120.189 22.1191C120.03 21.9245 119.906 21.8891 119.923 21.606C119.941 21.3759 120.03 21.0751 120.065 20.8274L119.977 20.7743C119.977 20.7566 119.941 20.7389 119.941 20.7389L119.817 18.5447C119.605 18.4562 119.534 18.3677 119.322 18.2262C119.092 18.0669 119.003 18.0669 118.72 17.9607C118.614 17.7661 118.667 17.7307 118.579 17.5361C118.402 17.1644 117.924 16.8105 117.747 16.4743C117.676 16.3328 117.747 15.678 117.782 15.4303C117.835 15.1295 118.189 15.0233 118.419 14.811C118.419 14.5455 118.419 14.2624 118.295 14.0324C117.216 13.9616 117.605 14.1386 117.039 13.5546C115.924 12.4221 116.084 13.4838 115.836 12.7937C115.8 12.7052 115.836 12.7583 115.783 12.6168C115.305 12.546 115.447 12.8114 114.491 12.5106C114.226 12.4221 114.243 12.3513 114.119 12.139C113.659 11.4312 114.314 11.7851 113.854 11.148C112.898 9.89168 113.606 9.76781 113.022 9.75012C112.881 10.688 113.571 10.7587 113.518 11.4489C112.969 11.4666 112.987 11.2188 112.739 10.8118C112.544 10.4756 112.615 10.0509 112.598 9.57316L112.084 9.34312V8.77687C111.518 9.52008 111.129 12.1567 111.111 13.36C111.093 15.041 111.43 16.7221 111.996 18.0846C114.88 25.1627 123.569 28.1355 130.116 23.9418C131.585 22.9862 131.903 22.5084 133.053 21.3228C132.929 21.2521 132.983 21.3228 132.894 21.2875L132.682 21.199C132.682 20.8097 132.753 20.5443 132.558 20.2788C132.363 19.9957 132.204 19.978 132.204 19.5179C132.204 19.0048 132.31 18.9163 132.027 18.6332C131.779 18.3854 131.762 18.1731 131.956 17.8192C132.399 16.9875 132.239 17.1468 131.815 16.3859C131.248 15.3241 131.514 15.8373 131.496 14.634C131.213 14.5809 130.859 14.5986 130.664 14.4571C129.868 13.8731 130.222 14.5102 129.125 14.4925C127.886 14.4748 128.453 14.9702 127.196 13.4838C126.984 13.2184 126.931 12.7937 127.002 12.369C127.037 12.139 127.055 12.2452 127.143 12.1213L127.249 11.8028C127.019 11.6081 126.948 11.7497 126.913 11.2896L128.258 10.2987V9.60855C128.435 9.52008 128.753 9.30773 128.948 9.27234C129.284 9.20156 129.55 9.32543 129.868 9.20156C130.346 8.97152 130.965 8.93613 131.549 8.93613L131.567 9.60855L133.089 10.0509C133.089 9.83859 133.053 9.83859 133.142 9.67933C133.85 9.59086 133.69 9.60855 134.133 9.92707C134.416 10.1394 134.964 10.0863 135.354 10.0509L135.035 9.02461C134.204 9.00691 134.08 9.0423 134.009 8.15754C133.779 8.19293 133.726 8.22832 133.655 8.42297C133.62 8.47605 133.602 8.58223 133.584 8.6707L133.46 8.91844C132.77 8.35219 133.177 8.22832 132.894 7.89211C132.859 7.83902 132.576 7.62668 132.487 7.5559C132.275 7.37894 132.239 7.41433 131.85 7.43203C131.921 8.01597 132.275 8.05137 132.682 8.2991L132.629 8.65301C132.593 8.82996 132.699 8.81226 132.452 8.91844C132.169 9.0423 132.009 8.90074 131.921 8.6884C132.186 8.6884 132.186 8.72379 132.399 8.61762C132.31 8.35219 131.691 8.10445 131.355 7.69746C131.355 7.69746 131.337 7.67976 131.319 7.66207C131.036 7.96289 131.089 7.9275 130.558 7.89211L129.904 8.86535C129.78 9.0423 129.55 9.02461 129.249 9.02461C128.913 9.00691 128.806 8.95383 128.559 8.86535C128.399 7.5559 128.594 7.71515 129.797 7.83902C129.886 7.44973 129.939 7.57359 129.638 7.41433C129.674 6.35262 130.081 7.20199 130.523 6.54726C130.965 5.87484 130.983 6.14027 131.797 6.12258C131.815 5.91023 131.797 5.71558 131.709 5.57402L131.266 5.73328C131.125 5.55633 131.16 5.50324 131.089 5.39707C130.841 5.09625 130.912 5.46785 130.753 5.13164C130.611 4.65387 131.39 4.67156 131.638 4.26457C131.532 3.94605 130.523 3.32672 130.222 3.11437C126.595 0.707812 121.835 0.548555 117.959 2.44195C117.517 2.6543 116.632 3.04359 116.314 3.46828Z" fill="#6196B2"/>
</svg>
